<svg xmlns="http://www.w3.org/2000/svg" xmlns:xlink="http://www.w3.org/1999/xlink" contentStyleType="text/css" data-diagram-type="CLASS" height="613px" preserveAspectRatio="none" style="width:672px;height:613px;background:#FFFFFF;" version="1.1" viewBox="0 0 672 613" width="672px" zoomAndPan="magnify"><?plantuml 1.2026.3beta6?><defs/><g><!--class User--><g class="entity" data-qualified-name="User" data-source-line="1" id="ent0002"><rect fill="#F1F1F1" height="178.375" rx="2.5" ry="2.5" style="stroke:#181818;stroke-width:0.5;" width="269.9541" x="260.53" y="7"/><ellipse cx="375.302" cy="23" fill="#ADD1B2" rx="11" ry="11" style="stroke:#181818;stroke-width:1;"/><path d="M378.2707,28.6406 Q377.6926,28.9375 377.052,29.0781 Q376.4113,29.2344 375.7082,29.2344 Q373.2082,29.2344 371.8801,27.5938 Q370.5676,25.9375 370.5676,22.8125 Q370.5676,19.6875 371.8801,18.0313 Q373.2082,16.375 375.7082,16.375 Q376.4113,16.375 377.052,16.5313 Q377.7082,16.6875 378.2707,16.9844 L378.2707,19.7031 Q377.6457,19.125 377.052,18.8594 Q376.4582,18.5781 375.8332,18.5781 Q374.4895,18.5781 373.802,19.6563 Q373.1145,20.7188 373.1145,22.8125 Q373.1145,24.9063 373.802,25.9844 Q374.4895,27.0469 375.8332,27.0469 Q376.4582,27.0469 377.052,26.7813 Q377.6457,26.5 378.2707,25.9219 L378.2707,28.6406 Z " fill="#000000"/><text fill="#000000" font-family="sans-serif" font-size="14" lengthAdjust="spacing" textLength="31.9102" x="395.802" y="27.8467">User</text><line style="stroke:#181818;stroke-width:0.5;" x1="261.53" x2="529.4841" y1="39" y2="39"/><g data-visibility-modifier="PUBLIC_FIELD"><ellipse cx="271.53" cy="52.6484" fill="none" rx="3" ry="3" style="stroke:#038048;stroke-width:1;"/></g><text fill="#000000" font-family="sans-serif" font-size="14" lengthAdjust="spacing" textLength="35.4785" x="280.53" y="55.9951">int id</text><g data-visibility-modifier="PUBLIC_FIELD"><ellipse cx="271.53" cy="68.9453" fill="none" rx="3" ry="3" style="stroke:#038048;stroke-width:1;"/></g><text fill="#000000" font-family="sans-serif" font-size="14" lengthAdjust="spacing" textLength="83.248" x="280.53" y="72.292">string email</text><g data-visibility-modifier="PUBLIC_FIELD"><ellipse cx="271.53" cy="85.2422" fill="none" rx="3" ry="3" style="stroke:#038048;stroke-width:1;"/></g><text fill="#000000" font-family="sans-serif" font-size="14" lengthAdjust="spacing" textLength="146.624" x="280.53" y="88.5889">string passwordHash</text><g data-visibility-modifier="PUBLIC_FIELD"><ellipse cx="271.53" cy="101.5391" fill="none" rx="3" ry="3" style="stroke:#038048;stroke-width:1;"/></g><text fill="#000000" font-family="sans-serif" font-size="14" lengthAdjust="spacing" textLength="87.6572" x="280.53" y="104.8857">string status</text><g data-visibility-modifier="PUBLIC_FIELD"><ellipse cx="271.53" cy="117.8359" fill="none" rx="3" ry="3" style="stroke:#038048;stroke-width:1;"/></g><text fill="#000000" font-family="sans-serif" font-size="14" lengthAdjust="spacing" textLength="136.3496" x="280.53" y="121.1826">datetime createdAt</text><line style="stroke:#181818;stroke-width:0.5;" x1="261.53" x2="529.4841" y1="128.4844" y2="128.4844"/><g data-visibility-modifier="PUBLIC_METHOD"><ellipse cx="271.53" cy="142.1328" fill="#84BE84" rx="3" ry="3" style="stroke:#038048;stroke-width:1;"/></g><text fill="#000000" font-family="sans-serif" font-size="14" lengthAdjust="spacing" textLength="88.5527" x="280.53" y="145.4795">login() : bool</text><g data-visibility-modifier="PUBLIC_METHOD"><ellipse cx="271.53" cy="158.4297" fill="#84BE84" rx="3" ry="3" style="stroke:#038048;stroke-width:1;"/></g><text fill="#000000" font-family="sans-serif" font-size="14" lengthAdjust="spacing" textLength="147.5811" x="280.53" y="161.7764">updateProfile() : void</text><g data-visibility-modifier="PUBLIC_METHOD"><ellipse cx="271.53" cy="174.7266" fill="#84BE84" rx="3" ry="3" style="stroke:#038048;stroke-width:1;"/></g><text fill="#000000" font-family="sans-serif" font-size="14" lengthAdjust="spacing" textLength="243.9541" x="280.53" y="178.0732">getAuditHistory() : List&lt;AuditLog&gt;</text></g><!--class Role--><g class="entity" data-qualified-name="Role" data-source-line="12" id="ent0003"><rect fill="#F1F1F1" height="113.1875" rx="2.5" ry="2.5" style="stroke:#181818;stroke-width:0.5;" width="269.0176" x="7" y="278.67"/><ellipse cx="121.8608" cy="294.67" fill="#ADD1B2" rx="11" ry="11" style="stroke:#181818;stroke-width:1;"/><path d="M124.8296,300.3106 Q124.2515,300.6075 123.6108,300.7481 Q122.9702,300.9044 122.2671,300.9044 Q119.7671,300.9044 118.439,299.2638 Q117.1265,297.6075 117.1265,294.4825 Q117.1265,291.3575 118.439,289.7013 Q119.7671,288.045 122.2671,288.045 Q122.9702,288.045 123.6108,288.2013 Q124.2671,288.3575 124.8296,288.6544 L124.8296,291.3731 Q124.2046,290.795 123.6108,290.5294 Q123.0171,290.2481 122.3921,290.2481 Q121.0483,290.2481 120.3608,291.3263 Q119.6733,292.3888 119.6733,294.4825 Q119.6733,296.5763 120.3608,297.6544 Q121.0483,298.7169 122.3921,298.7169 Q123.0171,298.7169 123.6108,298.4513 Q124.2046,298.17 124.8296,297.5919 L124.8296,300.3106 Z " fill="#000000"/><text fill="#000000" font-family="sans-serif" font-size="14" lengthAdjust="spacing" textLength="30.7959" x="142.3608" y="299.5167">Role</text><line style="stroke:#181818;stroke-width:0.5;" x1="8" x2="275.0176" y1="310.67" y2="310.67"/><g data-visibility-modifier="PUBLIC_FIELD"><ellipse cx="18" cy="324.3184" fill="none" rx="3" ry="3" style="stroke:#038048;stroke-width:1;"/></g><text fill="#000000" font-family="sans-serif" font-size="14" lengthAdjust="spacing" textLength="35.4785" x="27" y="327.6651">int id</text><g data-visibility-modifier="PUBLIC_FIELD"><ellipse cx="18" cy="340.6153" fill="none" rx="3" ry="3" style="stroke:#038048;stroke-width:1;"/></g><text fill="#000000" font-family="sans-serif" font-size="14" lengthAdjust="spacing" textLength="84.3418" x="27" y="343.962">string name</text><g data-visibility-modifier="PUBLIC_FIELD"><ellipse cx="18" cy="356.9122" fill="none" rx="3" ry="3" style="stroke:#038048;stroke-width:1;"/></g><text fill="#000000" font-family="sans-serif" font-size="14" lengthAdjust="spacing" textLength="122.4795" x="27" y="360.2589">string description</text><line style="stroke:#181818;stroke-width:0.5;" x1="8" x2="275.0176" y1="367.5606" y2="367.5606"/><g data-visibility-modifier="PUBLIC_METHOD"><ellipse cx="18" cy="381.2091" fill="#84BE84" rx="3" ry="3" style="stroke:#038048;stroke-width:1;"/></g><text fill="#000000" font-family="sans-serif" font-size="14" lengthAdjust="spacing" textLength="243.0176" x="27" y="384.5557">hasPermission(code : string) : bool</text></g><!--class Permission--><g class="entity" data-qualified-name="Permission" data-source-line="19" id="ent0004"><rect fill="#F1F1F1" height="113.1875" rx="2.5" ry="2.5" style="stroke:#181818;stroke-width:0.5;" width="179.3096" x="51.85" y="485.15"/><ellipse cx="99.1273" cy="501.15" fill="#ADD1B2" rx="11" ry="11" style="stroke:#181818;stroke-width:1;"/><path d="M102.0961,506.7906 Q101.518,507.0875 100.8773,507.2281 Q100.2367,507.3844 99.5336,507.3844 Q97.0336,507.3844 95.7055,505.7438 Q94.393,504.0875 94.393,500.9625 Q94.393,497.8375 95.7055,496.1813 Q97.0336,494.525 99.5336,494.525 Q100.2367,494.525 100.8773,494.6813 Q101.5336,494.8375 102.0961,495.1344 L102.0961,497.8531 Q101.4711,497.275 100.8773,497.0094 Q100.2836,496.7281 99.6586,496.7281 Q98.3148,496.7281 97.6273,497.8063 Q96.9398,498.8688 96.9398,500.9625 Q96.9398,503.0563 97.6273,504.1344 Q98.3148,505.1969 99.6586,505.1969 Q100.2836,505.1969 100.8773,504.9313 Q101.4711,504.65 102.0961,504.0719 L102.0961,506.7906 Z " fill="#000000"/><text fill="#000000" font-family="sans-serif" font-size="14" lengthAdjust="spacing" textLength="76.2549" x="119.6273" y="505.9967">Permission</text><line style="stroke:#181818;stroke-width:0.5;" x1="52.85" x2="230.1596" y1="517.15" y2="517.15"/><g data-visibility-modifier="PUBLIC_FIELD"><ellipse cx="62.85" cy="530.7984" fill="none" rx="3" ry="3" style="stroke:#038048;stroke-width:1;"/></g><text fill="#000000" font-family="sans-serif" font-size="14" lengthAdjust="spacing" textLength="35.4785" x="71.85" y="534.1451">int id</text><g data-visibility-modifier="PUBLIC_FIELD"><ellipse cx="62.85" cy="547.0953" fill="none" rx="3" ry="3" style="stroke:#038048;stroke-width:1;"/></g><text fill="#000000" font-family="sans-serif" font-size="14" lengthAdjust="spacing" textLength="78.4014" x="71.85" y="550.442">string code</text><g data-visibility-modifier="PUBLIC_FIELD"><ellipse cx="62.85" cy="563.3922" fill="none" rx="3" ry="3" style="stroke:#038048;stroke-width:1;"/></g><text fill="#000000" font-family="sans-serif" font-size="14" lengthAdjust="spacing" textLength="122.4795" x="71.85" y="566.7389">string description</text><line style="stroke:#181818;stroke-width:0.5;" x1="52.85" x2="230.1596" y1="574.0406" y2="574.0406"/><g data-visibility-modifier="PUBLIC_METHOD"><ellipse cx="62.85" cy="587.6891" fill="#84BE84" rx="3" ry="3" style="stroke:#038048;stroke-width:1;"/></g><text fill="#000000" font-family="sans-serif" font-size="14" lengthAdjust="spacing" textLength="153.3096" x="71.85" y="591.0357">validateScope() : bool</text></g><!--class AuditLog--><g class="entity" data-qualified-name="AuditLog" data-source-line="26" id="ent0005"><rect fill="#F1F1F1" height="145.7813" rx="2.5" ry="2.5" style="stroke:#181818;stroke-width:0.5;" width="169.165" x="310.93" y="262.37"/><ellipse cx="360.2786" cy="278.37" fill="#ADD1B2" rx="11" ry="11" style="stroke:#181818;stroke-width:1;"/><path d="M363.2474,284.0106 Q362.6693,284.3075 362.0286,284.4481 Q361.388,284.6044 360.6849,284.6044 Q358.1849,284.6044 356.8568,282.9638 Q355.5443,281.3075 355.5443,278.1825 Q355.5443,275.0575 356.8568,273.4013 Q358.1849,271.745 360.6849,271.745 Q361.388,271.745 362.0286,271.9013 Q362.6849,272.0575 363.2474,272.3544 L363.2474,275.0731 Q362.6224,274.495 362.0286,274.2294 Q361.4349,273.9481 360.8099,273.9481 Q359.4661,273.9481 358.7786,275.0263 Q358.0911,276.0888 358.0911,278.1825 Q358.0911,280.2763 358.7786,281.3544 Q359.4661,282.4169 360.8099,282.4169 Q361.4349,282.4169 362.0286,282.1513 Q362.6224,281.87 363.2474,281.2919 L363.2474,284.0106 Z " fill="#000000"/><text fill="#000000" font-family="sans-serif" font-size="14" lengthAdjust="spacing" textLength="61.9678" x="380.7786" y="283.2167">AuditLog</text><line style="stroke:#181818;stroke-width:0.5;" x1="311.93" x2="479.095" y1="294.37" y2="294.37"/><g data-visibility-modifier="PUBLIC_FIELD"><ellipse cx="321.93" cy="308.0184" fill="none" rx="3" ry="3" style="stroke:#038048;stroke-width:1;"/></g><text fill="#000000" font-family="sans-serif" font-size="14" lengthAdjust="spacing" textLength="35.4785" x="330.93" y="311.3651">int id</text><g data-visibility-modifier="PUBLIC_FIELD"><ellipse cx="321.93" cy="324.3153" fill="none" rx="3" ry="3" style="stroke:#038048;stroke-width:1;"/></g><text fill="#000000" font-family="sans-serif" font-size="14" lengthAdjust="spacing" textLength="87.7324" x="330.93" y="327.662">string action</text><g data-visibility-modifier="PUBLIC_FIELD"><ellipse cx="321.93" cy="340.6122" fill="none" rx="3" ry="3" style="stroke:#038048;stroke-width:1;"/></g><text fill="#000000" font-family="sans-serif" font-size="14" lengthAdjust="spacing" textLength="121.3994" x="330.93" y="343.9589">string tableName</text><g data-visibility-modifier="PUBLIC_FIELD"><ellipse cx="321.93" cy="356.9091" fill="none" rx="3" ry="3" style="stroke:#038048;stroke-width:1;"/></g><text fill="#000000" font-family="sans-serif" font-size="14" lengthAdjust="spacing" textLength="112.8066" x="330.93" y="360.2557">string oldValues</text><g data-visibility-modifier="PUBLIC_FIELD"><ellipse cx="321.93" cy="373.2059" fill="none" rx="3" ry="3" style="stroke:#038048;stroke-width:1;"/></g><text fill="#000000" font-family="sans-serif" font-size="14" lengthAdjust="spacing" textLength="120.4014" x="330.93" y="376.5526">string newValues</text><g data-visibility-modifier="PUBLIC_FIELD"><ellipse cx="321.93" cy="389.5028" fill="none" rx="3" ry="3" style="stroke:#038048;stroke-width:1;"/></g><text fill="#000000" font-family="sans-serif" font-size="14" lengthAdjust="spacing" textLength="143.165" x="330.93" y="392.8495">datetime timestamp</text><line style="stroke:#181818;stroke-width:0.5;" x1="311.93" x2="479.095" y1="400.1513" y2="400.1513"/></g><!--class LoginHistory--><g class="entity" data-qualified-name="LoginHistory" data-source-line="35" id="ent0006"><rect fill="#F1F1F1" height="96.8906" rx="2.5" ry="2.5" style="stroke:#181818;stroke-width:0.5;" width="142.8193" x="515.1" y="286.82"/><ellipse cx="540.4491" cy="302.82" fill="#ADD1B2" rx="11" ry="11" style="stroke:#181818;stroke-width:1;"/><path d="M543.4179,308.4606 Q542.8397,308.7575 542.1991,308.8981 Q541.5585,309.0544 540.8554,309.0544 Q538.3554,309.0544 537.0272,307.4138 Q535.7147,305.7575 535.7147,302.6325 Q535.7147,299.5075 537.0272,297.8513 Q538.3554,296.195 540.8554,296.195 Q541.5585,296.195 542.1991,296.3513 Q542.8554,296.5075 543.4179,296.8044 L543.4179,299.5231 Q542.7929,298.945 542.1991,298.6794 Q541.6054,298.3981 540.9804,298.3981 Q539.6366,298.3981 538.9491,299.4763 Q538.2616,300.5388 538.2616,302.6325 Q538.2616,304.7263 538.9491,305.8044 Q539.6366,306.8669 540.9804,306.8669 Q541.6054,306.8669 542.1991,306.6013 Q542.7929,306.32 543.4179,305.7419 L543.4179,308.4606 Z " fill="#000000"/><text fill="#000000" font-family="sans-serif" font-size="14" lengthAdjust="spacing" textLength="87.8213" x="556.7489" y="307.6667">LoginHistory</text><line style="stroke:#181818;stroke-width:0.5;" x1="516.1" x2="656.9193" y1="318.82" y2="318.82"/><g data-visibility-modifier="PUBLIC_FIELD"><ellipse cx="526.1" cy="332.4684" fill="none" rx="3" ry="3" style="stroke:#038048;stroke-width:1;"/></g><text fill="#000000" font-family="sans-serif" font-size="14" lengthAdjust="spacing" textLength="35.4785" x="535.1" y="335.8151">int id</text><g data-visibility-modifier="PUBLIC_FIELD"><ellipse cx="526.1" cy="348.7653" fill="none" rx="3" ry="3" style="stroke:#038048;stroke-width:1;"/></g><text fill="#000000" font-family="sans-serif" font-size="14" lengthAdjust="spacing" textLength="113.7227" x="535.1" y="352.112">string ipAddress</text><g data-visibility-modifier="PUBLIC_FIELD"><ellipse cx="526.1" cy="365.0622" fill="none" rx="3" ry="3" style="stroke:#038048;stroke-width:1;"/></g><text fill="#000000" font-family="sans-serif" font-size="14" lengthAdjust="spacing" textLength="116.8193" x="535.1" y="368.4089">datetime loginAt</text><line style="stroke:#181818;stroke-width:0.5;" x1="516.1" x2="656.9193" y1="375.7106" y2="375.7106"/></g><!--link User to Role--><g class="link" data-entity-1="ent0002" data-entity-2="ent0003" data-link-type="dependency" data-source-line="41" id="lnk7"><path codeLine="41" d="M300.57,185.8 C267.31,216.84 235.3062,246.716 205.7362,274.316" fill="none" id="User-to-Role" style="stroke:#181818;stroke-width:1;"/><polygon fill="#181818" points="201.35,278.41,210.6587,275.1931,205.0052,274.9983,205.2,269.3448,201.35,278.41" style="stroke:#181818;stroke-width:1;"/><text fill="#000000" font-family="sans-serif" font-size="13" lengthAdjust="spacing" textLength="77.416" x="269.51" y="228.4369">assigned_to</text><text fill="#000000" font-family="sans-serif" font-size="13" lengthAdjust="spacing" textLength="8.271" x="285.0055" y="205.3072">1</text><text fill="#000000" font-family="sans-serif" font-size="13" lengthAdjust="spacing" textLength="8.271" x="200.1722" y="267.6419">1</text></g><!--link Role to Permission--><g class="link" data-entity-1="ent0003" data-entity-2="ent0004" data-link-type="aggregation" data-source-line="42" id="lnk8"><path codeLine="42" d="M141.51,392.14 C141.51,420.99 141.51,444.09 141.51,472.94" fill="none" id="Role-to-Permission" style="stroke:#181818;stroke-width:1;"/><polygon fill="none" points="141.51,484.94,145.51,478.94,141.51,472.94,137.51,478.94,141.51,484.94" style="stroke:#181818;stroke-width:1;"/><text fill="#000000" font-family="sans-serif" font-size="13" lengthAdjust="spacing" textLength="55.0278" x="142.51" y="451.2169">contains</text><text fill="#000000" font-family="sans-serif" font-size="13" lengthAdjust="spacing" textLength="8.271" x="133.0392" y="412.0608">1</text><text fill="#000000" font-family="sans-serif" font-size="13" lengthAdjust="spacing" textLength="6.5" x="135.1755" y="474.178">*</text></g><!--link User to AuditLog--><g class="link" data-entity-1="ent0002" data-entity-2="ent0005" data-link-type="dependency" data-source-line="43" id="lnk9"><path codeLine="43" d="M395.51,185.8 C395.51,210.92 395.51,231.96 395.51,255.99" fill="none" id="User-to-AuditLog" style="stroke:#181818;stroke-width:1;"/><polygon fill="#181818" points="395.51,261.99,399.51,252.99,395.51,256.99,391.51,252.99,395.51,261.99" style="stroke:#181818;stroke-width:1;"/><text fill="#000000" font-family="sans-serif" font-size="13" lengthAdjust="spacing" textLength="65.6665" x="396.51" y="228.4369">generates</text><text fill="#000000" font-family="sans-serif" font-size="13" lengthAdjust="spacing" textLength="8.271" x="387.2143" y="205.3072">1</text><text fill="#000000" font-family="sans-serif" font-size="13" lengthAdjust="spacing" textLength="6.5" x="389.2477" y="251.3648">*</text></g><!--link User to LoginHistory--><g class="link" data-entity-1="ent0002" data-entity-2="ent0006" data-link-type="dependency" data-source-line="44" id="lnk10"><path codeLine="44" d="M466.9,185.8 C494.45,220 521.0947,253.0786 544.3647,281.9486" fill="none" id="User-to-LoginHistory" style="stroke:#181818;stroke-width:1;"/><polygon fill="#181818" points="548.13,286.62,545.5963,277.1026,544.9922,282.7271,539.3677,282.123,548.13,286.62" style="stroke:#181818;stroke-width:1;"/><text fill="#000000" font-family="sans-serif" font-size="13" lengthAdjust="spacing" textLength="57.1924" x="502.51" y="228.4369">registers</text><text fill="#000000" font-family="sans-serif" font-size="13" lengthAdjust="spacing" textLength="8.271" x="464.0701" y="205.3072">1</text><text fill="#000000" font-family="sans-serif" font-size="13" lengthAdjust="spacing" textLength="6.5" x="536.3461" y="275.8008">*</text></g><?plantuml-src VLB1QiCm3BtdAqnEtKOFkuPHwAs7Cih6TXskhRa2nmgMqpB6_dsAqoPDDv938fwLz_JqRBncLcyCKNqNIfu734cXxMjE4ODJK6lq4wIHlquKxKRpONB0IQUMUyZg10bhK2Q2b7QTUjoJmx2uKvNQ4vrvswRhtaNwH0_vx4YNAHoaTMinRP0JnQzykfNwAQDRSglYfoXCTl927cQS15t31B309cAJa4AF7pJl8DR8BD32a0LHwvk7YGUriND6i-EOrpngZvtzLqCDBFxAN7pEY6WpqfsXfFSUdcyDaxVlshV0qxt0wHeTakjU4cdTZCDik_JEKSmCXCtQsWXyovZ3bviWVFdMbO-bMYvN-Pl3gvIee0jWFn8L6UfxI9NtvVNAArbjI1e3tr19sx2oIZa844N-dww9bqf5S593v5y0?></g></svg>