<svg xmlns="http://www.w3.org/2000/svg" xmlns:xlink="http://www.w3.org/1999/xlink" contentStyleType="text/css" data-diagram-type="CLASS" height="531px" preserveAspectRatio="none" style="width:548px;height:531px;background:#FFFFFF;" version="1.1" viewBox="0 0 548 531" width="548px" zoomAndPan="magnify"><?plantuml 1.2026.3beta6?><defs/><g><!--class Category--><g class="entity" data-qualified-name="Category" data-source-line="1" id="ent0002"><rect fill="#F1F1F1" height="96.8906" rx="2.5" ry="2.5" style="stroke:#181818;stroke-width:0.5;" width="236.1777" x="7" y="7"/><ellipse cx="88.8638" cy="23" fill="#ADD1B2" rx="11" ry="11" style="stroke:#181818;stroke-width:1;"/><path d="M91.8325,28.6406 Q91.2544,28.9375 90.6138,29.0781 Q89.9731,29.2344 89.27,29.2344 Q86.77,29.2344 85.4419,27.5938 Q84.1294,25.9375 84.1294,22.8125 Q84.1294,19.6875 85.4419,18.0313 Q86.77,16.375 89.27,16.375 Q89.9731,16.375 90.6138,16.5313 Q91.27,16.6875 91.8325,16.9844 L91.8325,19.7031 Q91.2075,19.125 90.6138,18.8594 Q90.02,18.5781 89.395,18.5781 Q88.0513,18.5781 87.3638,19.6563 Q86.6763,20.7188 86.6763,22.8125 Q86.6763,24.9063 87.3638,25.9844 Q88.0513,27.0469 89.395,27.0469 Q90.02,27.0469 90.6138,26.7813 Q91.2075,26.5 91.8325,25.9219 L91.8325,28.6406 Z " fill="#000000"/><text fill="#000000" font-family="sans-serif" font-size="14" lengthAdjust="spacing" textLength="63.9502" x="109.3638" y="27.8467">Category</text><line style="stroke:#181818;stroke-width:0.5;" x1="8" x2="242.1777" y1="39" y2="39"/><g data-visibility-modifier="PUBLIC_FIELD"><ellipse cx="18" cy="52.6484" fill="none" rx="3" ry="3" style="stroke:#038048;stroke-width:1;"/></g><text fill="#000000" font-family="sans-serif" font-size="14" lengthAdjust="spacing" textLength="35.4785" x="27" y="55.9951">int id</text><g data-visibility-modifier="PUBLIC_FIELD"><ellipse cx="18" cy="68.9453" fill="none" rx="3" ry="3" style="stroke:#038048;stroke-width:1;"/></g><text fill="#000000" font-family="sans-serif" font-size="14" lengthAdjust="spacing" textLength="84.3418" x="27" y="72.292">string name</text><line style="stroke:#181818;stroke-width:0.5;" x1="8" x2="242.1777" y1="79.5938" y2="79.5938"/><g data-visibility-modifier="PUBLIC_METHOD"><ellipse cx="18" cy="93.2422" fill="#84BE84" rx="3" ry="3" style="stroke:#038048;stroke-width:1;"/></g><text fill="#000000" font-family="sans-serif" font-size="14" lengthAdjust="spacing" textLength="210.1777" x="27" y="96.5889">getProducts() : List&lt;Product&gt;</text></g><!--class Brand--><g class="entity" data-qualified-name="Brand" data-source-line="7" id="ent0003"><rect fill="#F1F1F1" height="80.5938" rx="2.5" ry="2.5" style="stroke:#181818;stroke-width:0.5;" width="110.3418" x="277.92" y="15.15"/><ellipse cx="309.4092" cy="31.15" fill="#ADD1B2" rx="11" ry="11" style="stroke:#181818;stroke-width:1;"/><path d="M312.3779,36.7906 Q311.7998,37.0875 311.1592,37.2281 Q310.5185,37.3844 309.8154,37.3844 Q307.3154,37.3844 305.9873,35.7438 Q304.6748,34.0875 304.6748,30.9625 Q304.6748,27.8375 305.9873,26.1813 Q307.3154,24.525 309.8154,24.525 Q310.5185,24.525 311.1592,24.6813 Q311.8154,24.8375 312.3779,25.1344 L312.3779,27.8531 Q311.7529,27.275 311.1592,27.0094 Q310.5654,26.7281 309.9404,26.7281 Q308.5967,26.7281 307.9092,27.8063 Q307.2217,28.8688 307.2217,30.9625 Q307.2217,33.0563 307.9092,34.1344 Q308.5967,35.1969 309.9404,35.1969 Q310.5654,35.1969 311.1592,34.9313 Q311.7529,34.65 312.3779,34.0719 L312.3779,36.7906 Z " fill="#000000"/><text fill="#000000" font-family="sans-serif" font-size="14" lengthAdjust="spacing" textLength="41.6992" x="327.0734" y="35.9967">Brand</text><line style="stroke:#181818;stroke-width:0.5;" x1="278.92" x2="387.2618" y1="47.15" y2="47.15"/><g data-visibility-modifier="PUBLIC_FIELD"><ellipse cx="288.92" cy="60.7984" fill="none" rx="3" ry="3" style="stroke:#038048;stroke-width:1;"/></g><text fill="#000000" font-family="sans-serif" font-size="14" lengthAdjust="spacing" textLength="35.4785" x="297.92" y="64.1451">int id</text><g data-visibility-modifier="PUBLIC_FIELD"><ellipse cx="288.92" cy="77.0953" fill="none" rx="3" ry="3" style="stroke:#038048;stroke-width:1;"/></g><text fill="#000000" font-family="sans-serif" font-size="14" lengthAdjust="spacing" textLength="84.3418" x="297.92" y="80.442">string name</text><line style="stroke:#181818;stroke-width:0.5;" x1="278.92" x2="387.2618" y1="87.7438" y2="87.7438"/></g><!--class UOM--><g class="entity" data-qualified-name="UOM" data-source-line="12" id="ent0004"><rect fill="#F1F1F1" height="96.8906" rx="2.5" ry="2.5" style="stroke:#181818;stroke-width:0.5;" width="110.3418" x="422.92" y="7"/><ellipse cx="458.1682" cy="23" fill="#ADD1B2" rx="11" ry="11" style="stroke:#181818;stroke-width:1;"/><path d="M461.137,28.6406 Q460.5589,28.9375 459.9182,29.0781 Q459.2776,29.2344 458.5745,29.2344 Q456.0745,29.2344 454.7464,27.5938 Q453.4339,25.9375 453.4339,22.8125 Q453.4339,19.6875 454.7464,18.0313 Q456.0745,16.375 458.5745,16.375 Q459.2776,16.375 459.9182,16.5313 Q460.5745,16.6875 461.137,16.9844 L461.137,19.7031 Q460.512,19.125 459.9182,18.8594 Q459.3245,18.5781 458.6995,18.5781 Q457.3557,18.5781 456.6682,19.6563 Q455.9807,20.7188 455.9807,22.8125 Q455.9807,24.9063 456.6682,25.9844 Q457.3557,27.0469 458.6995,27.0469 Q459.3245,27.0469 459.9182,26.7813 Q460.512,26.5 461.137,25.9219 L461.137,28.6406 Z " fill="#000000"/><text fill="#000000" font-family="sans-serif" font-size="14" lengthAdjust="spacing" textLength="33.3457" x="476.6679" y="27.8467">UOM</text><line style="stroke:#181818;stroke-width:0.5;" x1="423.92" x2="532.2618" y1="39" y2="39"/><g data-visibility-modifier="PUBLIC_FIELD"><ellipse cx="433.92" cy="52.6484" fill="none" rx="3" ry="3" style="stroke:#038048;stroke-width:1;"/></g><text fill="#000000" font-family="sans-serif" font-size="14" lengthAdjust="spacing" textLength="35.4785" x="442.92" y="55.9951">int id</text><g data-visibility-modifier="PUBLIC_FIELD"><ellipse cx="433.92" cy="68.9453" fill="none" rx="3" ry="3" style="stroke:#038048;stroke-width:1;"/></g><text fill="#000000" font-family="sans-serif" font-size="14" lengthAdjust="spacing" textLength="78.4014" x="442.92" y="72.292">string code</text><g data-visibility-modifier="PUBLIC_FIELD"><ellipse cx="433.92" cy="85.2422" fill="none" rx="3" ry="3" style="stroke:#038048;stroke-width:1;"/></g><text fill="#000000" font-family="sans-serif" font-size="14" lengthAdjust="spacing" textLength="84.3418" x="442.92" y="88.5889">string name</text><line style="stroke:#181818;stroke-width:0.5;" x1="423.92" x2="532.2618" y1="95.8906" y2="95.8906"/></g><!--class Product--><g class="entity" data-qualified-name="Product" data-source-line="18" id="ent0005"><rect fill="#F1F1F1" height="129.4844" rx="2.5" ry="2.5" style="stroke:#181818;stroke-width:0.5;" width="258.5039" x="203.84" y="180.89"/><ellipse cx="301.987" cy="196.89" fill="#ADD1B2" rx="11" ry="11" style="stroke:#181818;stroke-width:1;"/><path d="M304.9557,202.5306 Q304.3776,202.8275 303.737,202.9681 Q303.0963,203.1244 302.3932,203.1244 Q299.8932,203.1244 298.5651,201.4838 Q297.2526,199.8275 297.2526,196.7025 Q297.2526,193.5775 298.5651,191.9213 Q299.8932,190.265 302.3932,190.265 Q303.0963,190.265 303.737,190.4213 Q304.3932,190.5775 304.9557,190.8744 L304.9557,193.5931 Q304.3307,193.015 303.737,192.7494 Q303.1432,192.4681 302.5182,192.4681 Q301.1745,192.4681 300.487,193.5463 Q299.7995,194.6088 299.7995,196.7025 Q299.7995,198.7963 300.487,199.8744 Q301.1745,200.9369 302.5182,200.9369 Q303.1432,200.9369 303.737,200.6713 Q304.3307,200.39 304.9557,199.8119 L304.9557,202.5306 Z " fill="#000000"/><text fill="#000000" font-family="sans-serif" font-size="14" lengthAdjust="spacing" textLength="53.71" x="322.487" y="201.7367">Product</text><line style="stroke:#181818;stroke-width:0.5;" x1="204.84" x2="461.3439" y1="212.89" y2="212.89"/><g data-visibility-modifier="PUBLIC_FIELD"><ellipse cx="214.84" cy="226.5384" fill="none" rx="3" ry="3" style="stroke:#038048;stroke-width:1;"/></g><text fill="#000000" font-family="sans-serif" font-size="14" lengthAdjust="spacing" textLength="35.4785" x="223.84" y="229.8851">int id</text><g data-visibility-modifier="PUBLIC_FIELD"><ellipse cx="214.84" cy="242.8353" fill="none" rx="3" ry="3" style="stroke:#038048;stroke-width:1;"/></g><text fill="#000000" font-family="sans-serif" font-size="14" lengthAdjust="spacing" textLength="68.9131" x="223.84" y="246.182">string sku</text><g data-visibility-modifier="PUBLIC_FIELD"><ellipse cx="214.84" cy="259.1322" fill="none" rx="3" ry="3" style="stroke:#038048;stroke-width:1;"/></g><text fill="#000000" font-family="sans-serif" font-size="14" lengthAdjust="spacing" textLength="84.3418" x="223.84" y="262.4789">string name</text><g data-visibility-modifier="PUBLIC_FIELD"><ellipse cx="214.84" cy="275.4291" fill="none" rx="3" ry="3" style="stroke:#038048;stroke-width:1;"/></g><text fill="#000000" font-family="sans-serif" font-size="14" lengthAdjust="spacing" textLength="132.6445" x="223.84" y="278.7757">float standardPrice</text><line style="stroke:#181818;stroke-width:0.5;" x1="204.84" x2="461.3439" y1="286.0775" y2="286.0775"/><g data-visibility-modifier="PUBLIC_METHOD"><ellipse cx="214.84" cy="299.7259" fill="#84BE84" rx="3" ry="3" style="stroke:#038048;stroke-width:1;"/></g><text fill="#000000" font-family="sans-serif" font-size="14" lengthAdjust="spacing" textLength="232.5039" x="223.84" y="303.0726">getSpecifications() : ProductSpec</text></g><!--class ProductSpec--><g class="entity" data-qualified-name="ProductSpec" data-source-line="26" id="ent0006"><rect fill="#F1F1F1" height="129.4844" rx="2.5" ry="2.5" style="stroke:#181818;stroke-width:0.5;" width="302.8213" x="181.68" y="387.38"/><ellipse cx="284.9437" cy="403.38" fill="#ADD1B2" rx="11" ry="11" style="stroke:#181818;stroke-width:1;"/><path d="M287.9124,409.0206 Q287.3343,409.3175 286.6937,409.4581 Q286.053,409.6144 285.3499,409.6144 Q282.8499,409.6144 281.5218,407.9738 Q280.2093,406.3175 280.2093,403.1925 Q280.2093,400.0675 281.5218,398.4113 Q282.8499,396.755 285.3499,396.755 Q286.053,396.755 286.6937,396.9113 Q287.3499,397.0675 287.9124,397.3644 L287.9124,400.0831 Q287.2874,399.505 286.6937,399.2394 Q286.0999,398.9581 285.4749,398.9581 Q284.1312,398.9581 283.4437,400.0363 Q282.7562,401.0988 282.7562,403.1925 Q282.7562,405.2863 283.4437,406.3644 Q284.1312,407.4269 285.4749,407.4269 Q286.0999,407.4269 286.6937,407.1613 Q287.2874,406.88 287.9124,406.3019 L287.9124,409.0206 Z " fill="#000000"/><text fill="#000000" font-family="sans-serif" font-size="14" lengthAdjust="spacing" textLength="87.7939" x="305.4437" y="408.2267">ProductSpec</text><line style="stroke:#181818;stroke-width:0.5;" x1="182.68" x2="483.5013" y1="419.38" y2="419.38"/><g data-visibility-modifier="PUBLIC_FIELD"><ellipse cx="192.68" cy="433.0284" fill="none" rx="3" ry="3" style="stroke:#038048;stroke-width:1;"/></g><text fill="#000000" font-family="sans-serif" font-size="14" lengthAdjust="spacing" textLength="182.1914" x="201.68" y="436.3751">string storageTempRange</text><g data-visibility-modifier="PUBLIC_FIELD"><ellipse cx="192.68" cy="449.3253" fill="none" rx="3" ry="3" style="stroke:#038048;stroke-width:1;"/></g><text fill="#000000" font-family="sans-serif" font-size="14" lengthAdjust="spacing" textLength="152.5645" x="201.68" y="452.672">float storageHumidity</text><g data-visibility-modifier="PUBLIC_FIELD"><ellipse cx="192.68" cy="465.6222" fill="none" rx="3" ry="3" style="stroke:#038048;stroke-width:1;"/></g><text fill="#000000" font-family="sans-serif" font-size="14" lengthAdjust="spacing" textLength="128.2354" x="201.68" y="468.9689">string allergenInfo</text><g data-visibility-modifier="PUBLIC_FIELD"><ellipse cx="192.68" cy="481.9191" fill="none" rx="3" ry="3" style="stroke:#038048;stroke-width:1;"/></g><text fill="#000000" font-family="sans-serif" font-size="14" lengthAdjust="spacing" textLength="151.3613" x="201.68" y="485.2657">string packagingType</text><line style="stroke:#181818;stroke-width:0.5;" x1="182.68" x2="483.5013" y1="492.5675" y2="492.5675"/><g data-visibility-modifier="PUBLIC_METHOD"><ellipse cx="192.68" cy="506.2159" fill="#84BE84" rx="3" ry="3" style="stroke:#038048;stroke-width:1;"/></g><text fill="#000000" font-family="sans-serif" font-size="14" lengthAdjust="spacing" textLength="276.8213" x="201.68" y="509.5626">isOptimalConditions(temp : float) : bool</text></g><!--link Category to Product--><g class="link" data-entity-1="ent0002" data-entity-2="ent0005" data-link-type="composition" data-source-line="34" id="lnk7"><path codeLine="34" d="M177.84,104.18 C203.48,127.37 225.7508,147.5299 253.4208,172.5599" fill="none" id="Category-to-Product" style="stroke:#181818;stroke-width:1;"/><polygon fill="#181818" points="262.32,180.61,260.5538,173.6185,253.4208,172.5599,255.187,179.5513,262.32,180.61" style="stroke:#181818;stroke-width:1;"/><text fill="#000000" font-family="sans-serif" font-size="13" lengthAdjust="spacing" textLength="58.8428" x="230.09" y="146.9569">classifies</text><text fill="#000000" font-family="sans-serif" font-size="13" lengthAdjust="spacing" textLength="8.271" x="176.4091" y="123.8124">1</text><text fill="#000000" font-family="sans-serif" font-size="13" lengthAdjust="spacing" textLength="6.5" x="248.2785" y="169.752">*</text></g><!--link Brand to Product--><g class="link" data-entity-1="ent0003" data-entity-2="ent0005" data-link-type="composition" data-source-line="35" id="lnk8"><path codeLine="35" d="M333.09,95.9 C333.09,120.36 333.09,140.37 333.09,168.42" fill="none" id="Brand-to-Product" style="stroke:#181818;stroke-width:1;"/><polygon fill="#181818" points="333.09,180.42,337.09,174.42,333.09,168.42,329.09,174.42,333.09,180.42" style="stroke:#181818;stroke-width:1;"/><text fill="#000000" font-family="sans-serif" font-size="13" lengthAdjust="spacing" textLength="76.7495" x="334.09" y="146.9569">branded_by</text><text fill="#000000" font-family="sans-serif" font-size="13" lengthAdjust="spacing" textLength="8.271" x="324.4498" y="115.9201">1</text><text fill="#000000" font-family="sans-serif" font-size="13" lengthAdjust="spacing" textLength="6.5" x="326.8062" y="169.9953">*</text></g><!--link UOM to Product--><g class="link" data-entity-1="ent0004" data-entity-2="ent0005" data-link-type="composition" data-source-line="36" id="lnk9"><path codeLine="36" d="M450.63,104.18 C441.2,119.5 430.21,136.27 419.09,150.89 C411.6,160.73 411.1701,161.7273 402.7301,171.3773" fill="none" id="UOM-to-Product" style="stroke:#181818;stroke-width:1;"/><polygon fill="#181818" points="394.83,180.41,401.7909,178.527,402.7301,171.3773,395.7691,173.2603,394.83,180.41" style="stroke:#181818;stroke-width:1;"/><text fill="#000000" font-family="sans-serif" font-size="13" lengthAdjust="spacing" textLength="83.5859" x="430.09" y="146.9569">measured_in</text><text fill="#000000" font-family="sans-serif" font-size="13" lengthAdjust="spacing" textLength="8.271" x="438.4206" y="123.8124">1</text><text fill="#000000" font-family="sans-serif" font-size="13" lengthAdjust="spacing" textLength="6.5" x="394.9131" y="169.9843">*</text></g><!--reverse link Product to ProductSpec--><g class="link" data-entity-1="ent0005" data-entity-2="ent0006" data-link-type="composition" data-source-line="37" id="lnk10"><path codeLine="37" d="M333.09,322.77 C333.09,347.13 333.09,362.87 333.09,387.21" fill="none" id="Product-backto-ProductSpec" style="stroke:#181818;stroke-width:1;"/><polygon fill="#181818" points="333.09,310.77,329.09,316.77,333.09,322.77,337.09,316.77,333.09,310.77" style="stroke:#181818;stroke-width:1;"/><text fill="#000000" font-family="sans-serif" font-size="13" lengthAdjust="spacing" textLength="75.2324" x="334.09" y="353.4469">detailed_by</text><text fill="#000000" font-family="sans-serif" font-size="13" lengthAdjust="spacing" textLength="8.271" x="324.6913" y="330.3345">1</text><text fill="#000000" font-family="sans-serif" font-size="13" lengthAdjust="spacing" textLength="8.271" x="324.6672" y="376.3641">1</text></g><?plantuml-src XL4zJyCm4DtzAwnCK9I1jK8CT049r0hAZ2xsrJhLiIFxCaI8_uxjf8L22LvitJs_Zpjb8KQv0aRZmo3VXKpdYXnBqkCxSY1df8CMnu91tWIlUyNnub8kvID5lfagj-9325Kuxm8u_H_X4VswVfh1AgznvlCaFaCGz_qVQNRM0yl8oIm4lGcalcA-TAXeHmgOl1l3JbAvyqi_5myU3hhi0nZSOjizWpC_D4lllcz94myd_y1Q30RTWzlvaqO7QWyclRP3Dx5HN7TCBTYLTuceMEKacDmMeMoxyTvclyT5LzULhEk5h1RLSNnBMUAan1Z5kBxpi2RtKByrWyXxEmzg4M8V4egSE5GpSb7NvVu-jANKo42sS7u2?></g></svg>