<svg xmlns="http://www.w3.org/2000/svg" xmlns:xlink="http://www.w3.org/1999/xlink" contentStyleType="text/css" data-diagram-type="CLASS" height="722px" preserveAspectRatio="none" style="width:599px;height:722px;background:#FFFFFF;" version="1.1" viewBox="0 0 599 722" width="599px" zoomAndPan="magnify"><?plantuml 1.2026.3beta6?><defs/><g><!--class Warehouse--><g class="entity" data-qualified-name="Warehouse" data-source-line="1" id="ent0002"><rect fill="#F1F1F1" height="96.8906" rx="2.5" ry="2.5" style="stroke:#181818;stroke-width:0.5;" width="238.9395" x="232.29" y="7"/><ellipse cx="308.0048" cy="23" fill="#ADD1B2" rx="11" ry="11" style="stroke:#181818;stroke-width:1;"/><path d="M310.9736,28.6406 Q310.3955,28.9375 309.7548,29.0781 Q309.1142,29.2344 308.4111,29.2344 Q305.9111,29.2344 304.583,27.5938 Q303.2705,25.9375 303.2705,22.8125 Q303.2705,19.6875 304.583,18.0313 Q305.9111,16.375 308.4111,16.375 Q309.1142,16.375 309.7548,16.5313 Q310.4111,16.6875 310.9736,16.9844 L310.9736,19.7031 Q310.3486,19.125 309.7548,18.8594 Q309.1611,18.5781 308.5361,18.5781 Q307.1923,18.5781 306.5048,19.6563 Q305.8173,20.7188 305.8173,22.8125 Q305.8173,24.9063 306.5048,25.9844 Q307.1923,27.0469 308.5361,27.0469 Q309.1611,27.0469 309.7548,26.7813 Q310.3486,26.5 310.9736,25.9219 L310.9736,28.6406 Z " fill="#000000"/><text fill="#000000" font-family="sans-serif" font-size="14" lengthAdjust="spacing" textLength="79.0098" x="328.5048" y="27.8467">Warehouse</text><line style="stroke:#181818;stroke-width:0.5;" x1="233.29" x2="470.2295" y1="39" y2="39"/><g data-visibility-modifier="PUBLIC_FIELD"><ellipse cx="243.29" cy="52.6484" fill="none" rx="3" ry="3" style="stroke:#038048;stroke-width:1;"/></g><text fill="#000000" font-family="sans-serif" font-size="14" lengthAdjust="spacing" textLength="35.4785" x="252.29" y="55.9951">int id</text><g data-visibility-modifier="PUBLIC_FIELD"><ellipse cx="243.29" cy="68.9453" fill="none" rx="3" ry="3" style="stroke:#038048;stroke-width:1;"/></g><text fill="#000000" font-family="sans-serif" font-size="14" lengthAdjust="spacing" textLength="84.3418" x="252.29" y="72.292">string name</text><line style="stroke:#181818;stroke-width:0.5;" x1="233.29" x2="470.2295" y1="79.5938" y2="79.5938"/><g data-visibility-modifier="PUBLIC_METHOD"><ellipse cx="243.29" cy="93.2422" fill="#84BE84" rx="3" ry="3" style="stroke:#038048;stroke-width:1;"/></g><text fill="#000000" font-family="sans-serif" font-size="14" lengthAdjust="spacing" textLength="212.9395" x="252.29" y="96.5889">checkStorageCapacity() : float</text></g><!--class WarehouseLocation--><g class="entity" data-qualified-name="WarehouseLocation" data-source-line="7" id="ent0003"><rect fill="#F1F1F1" height="96.8906" rx="2.5" ry="2.5" style="stroke:#181818;stroke-width:0.5;" width="170.4688" x="266.52" y="180.89"/><ellipse cx="281.52" cy="196.89" fill="#ADD1B2" rx="11" ry="11" style="stroke:#181818;stroke-width:1;"/><path d="M284.4888,202.5306 Q283.9106,202.8275 283.27,202.9681 Q282.6294,203.1244 281.9263,203.1244 Q279.4263,203.1244 278.0981,201.4838 Q276.7856,199.8275 276.7856,196.7025 Q276.7856,193.5775 278.0981,191.9213 Q279.4263,190.265 281.9263,190.265 Q282.6294,190.265 283.27,190.4213 Q283.9263,190.5775 284.4888,190.8744 L284.4888,193.5931 Q283.8638,193.015 283.27,192.7494 Q282.6763,192.4681 282.0513,192.4681 Q280.7075,192.4681 280.02,193.5463 Q279.3325,194.6088 279.3325,196.7025 Q279.3325,198.7963 280.02,199.8744 Q280.7075,200.9369 282.0513,200.9369 Q282.6763,200.9369 283.27,200.6713 Q283.8638,200.39 284.4888,199.8119 L284.4888,202.5306 Z " fill="#000000"/><text fill="#000000" font-family="sans-serif" font-size="14" lengthAdjust="spacing" textLength="138.4688" x="295.52" y="201.7367">WarehouseLocation</text><line style="stroke:#181818;stroke-width:0.5;" x1="267.52" x2="435.9888" y1="212.89" y2="212.89"/><g data-visibility-modifier="PUBLIC_FIELD"><ellipse cx="277.52" cy="226.5384" fill="none" rx="3" ry="3" style="stroke:#038048;stroke-width:1;"/></g><text fill="#000000" font-family="sans-serif" font-size="14" lengthAdjust="spacing" textLength="35.4785" x="286.52" y="229.8851">int id</text><g data-visibility-modifier="PUBLIC_FIELD"><ellipse cx="277.52" cy="242.8353" fill="none" rx="3" ry="3" style="stroke:#038048;stroke-width:1;"/></g><text fill="#000000" font-family="sans-serif" font-size="14" lengthAdjust="spacing" textLength="78.4014" x="286.52" y="246.182">string code</text><line style="stroke:#181818;stroke-width:0.5;" x1="267.52" x2="435.9888" y1="253.4838" y2="253.4838"/><g data-visibility-modifier="PUBLIC_METHOD"><ellipse cx="277.52" cy="267.1322" fill="#84BE84" rx="3" ry="3" style="stroke:#038048;stroke-width:1;"/></g><text fill="#000000" font-family="sans-serif" font-size="14" lengthAdjust="spacing" textLength="131.1953" x="286.52" y="270.4789">isOccupied() : bool</text></g><!--class InventoryStock--><g class="entity" data-qualified-name="InventoryStock" data-source-line="13" id="ent0004"><rect fill="#F1F1F1" height="113.1875" rx="2.5" ry="2.5" style="stroke:#181818;stroke-width:0.5;" width="187.9092" x="257.8" y="354.78"/><ellipse cx="295.4323" cy="370.78" fill="#ADD1B2" rx="11" ry="11" style="stroke:#181818;stroke-width:1;"/><path d="M298.401,376.4206 Q297.8229,376.7175 297.1823,376.8581 Q296.5417,377.0144 295.8385,377.0144 Q293.3385,377.0144 292.0104,375.3738 Q290.6979,373.7175 290.6979,370.5925 Q290.6979,367.4675 292.0104,365.8113 Q293.3385,364.155 295.8385,364.155 Q296.5417,364.155 297.1823,364.3113 Q297.8385,364.4675 298.401,364.7644 L298.401,367.4831 Q297.776,366.905 297.1823,366.6394 Q296.5885,366.3581 295.9635,366.3581 Q294.6198,366.3581 293.9323,367.4363 Q293.2448,368.4988 293.2448,370.5925 Q293.2448,372.6863 293.9323,373.7644 Q294.6198,374.8269 295.9635,374.8269 Q296.5885,374.8269 297.1823,374.5613 Q297.776,374.28 298.401,373.7019 L298.401,376.4206 Z " fill="#000000"/><text fill="#000000" font-family="sans-serif" font-size="14" lengthAdjust="spacing" textLength="105.6152" x="314.4617" y="375.6267">InventoryStock</text><line style="stroke:#181818;stroke-width:0.5;" x1="258.8" x2="444.7092" y1="386.78" y2="386.78"/><g data-visibility-modifier="PUBLIC_FIELD"><ellipse cx="268.8" cy="400.4284" fill="none" rx="3" ry="3" style="stroke:#038048;stroke-width:1;"/></g><text fill="#000000" font-family="sans-serif" font-size="14" lengthAdjust="spacing" textLength="137.8262" x="277.8" y="403.7751">int quantityOnHand</text><g data-visibility-modifier="PUBLIC_FIELD"><ellipse cx="268.8" cy="416.7253" fill="none" rx="3" ry="3" style="stroke:#038048;stroke-width:1;"/></g><text fill="#000000" font-family="sans-serif" font-size="14" lengthAdjust="spacing" textLength="146.8564" x="277.8" y="420.072">int quantityReserved</text><line style="stroke:#181818;stroke-width:0.5;" x1="258.8" x2="444.7092" y1="427.3738" y2="427.3738"/><g data-visibility-modifier="PUBLIC_METHOD"><ellipse cx="268.8" cy="441.0222" fill="#84BE84" rx="3" ry="3" style="stroke:#038048;stroke-width:1;"/></g><text fill="#000000" font-family="sans-serif" font-size="14" lengthAdjust="spacing" textLength="161.9092" x="277.8" y="444.3689">reserve(qty : int) : bool</text><g data-visibility-modifier="PUBLIC_METHOD"><ellipse cx="268.8" cy="457.3191" fill="#84BE84" rx="3" ry="3" style="stroke:#038048;stroke-width:1;"/></g><text fill="#000000" font-family="sans-serif" font-size="14" lengthAdjust="spacing" textLength="160.0566" x="277.8" y="460.6657">release(qty : int) : void</text></g><!--class InventoryTrans--><g class="entity" data-qualified-name="InventoryTrans" data-source-line="20" id="ent0005"><rect fill="#F1F1F1" height="162.0781" rx="2.5" ry="2.5" style="stroke:#181818;stroke-width:0.5;" width="215.5127" x="7" y="544.97"/><ellipse cx="57.5449" cy="560.97" fill="#ADD1B2" rx="11" ry="11" style="stroke:#181818;stroke-width:1;"/><path d="M60.5137,566.6106 Q59.9355,566.9075 59.2949,567.0481 Q58.6543,567.2044 57.9512,567.2044 Q55.4512,567.2044 54.123,565.5637 Q52.8105,563.9075 52.8105,560.7825 Q52.8105,557.6575 54.123,556.0012 Q55.4512,554.345 57.9512,554.345 Q58.6543,554.345 59.2949,554.5012 Q59.9512,554.6575 60.5137,554.9544 L60.5137,557.6731 Q59.8887,557.095 59.2949,556.8294 Q58.7012,556.5481 58.0762,556.5481 Q56.7324,556.5481 56.0449,557.6262 Q55.3574,558.6887 55.3574,560.7825 Q55.3574,562.8762 56.0449,563.9544 Q56.7324,565.0169 58.0762,565.0169 Q58.7012,565.0169 59.2949,564.7512 Q59.8887,564.47 60.5137,563.8919 L60.5137,566.6106 Z " fill="#000000"/><text fill="#000000" font-family="sans-serif" font-size="14" lengthAdjust="spacing" textLength="105.9229" x="78.0449" y="565.8167">InventoryTrans</text><line style="stroke:#181818;stroke-width:0.5;" x1="8" x2="221.5127" y1="576.97" y2="576.97"/><g data-visibility-modifier="PUBLIC_FIELD"><ellipse cx="18" cy="590.6184" fill="none" rx="3" ry="3" style="stroke:#038048;stroke-width:1;"/></g><text fill="#000000" font-family="sans-serif" font-size="14" lengthAdjust="spacing" textLength="35.4785" x="27" y="593.9651">int id</text><g data-visibility-modifier="PUBLIC_FIELD"><ellipse cx="18" cy="606.9153" fill="none" rx="3" ry="3" style="stroke:#038048;stroke-width:1;"/></g><text fill="#000000" font-family="sans-serif" font-size="14" lengthAdjust="spacing" textLength="75.9131" x="27" y="610.262">string type</text><g data-visibility-modifier="PUBLIC_FIELD"><ellipse cx="18" cy="623.2122" fill="none" rx="3" ry="3" style="stroke:#038048;stroke-width:1;"/></g><text fill="#000000" font-family="sans-serif" font-size="14" lengthAdjust="spacing" textLength="81.0674" x="27" y="626.5589">int quantity</text><g data-visibility-modifier="PUBLIC_FIELD"><ellipse cx="18" cy="639.5091" fill="none" rx="3" ry="3" style="stroke:#038048;stroke-width:1;"/></g><text fill="#000000" font-family="sans-serif" font-size="14" lengthAdjust="spacing" textLength="98.2734" x="27" y="642.8557">string refType</text><g data-visibility-modifier="PUBLIC_FIELD"><ellipse cx="18" cy="655.8059" fill="none" rx="3" ry="3" style="stroke:#038048;stroke-width:1;"/></g><text fill="#000000" font-family="sans-serif" font-size="14" lengthAdjust="spacing" textLength="55.0156" x="27" y="659.1526">int refId</text><g data-visibility-modifier="PUBLIC_FIELD"><ellipse cx="18" cy="672.1028" fill="none" rx="3" ry="3" style="stroke:#038048;stroke-width:1;"/></g><text fill="#000000" font-family="sans-serif" font-size="14" lengthAdjust="spacing" textLength="137.1016" x="27" y="675.4495">datetime transDate</text><line style="stroke:#181818;stroke-width:0.5;" x1="8" x2="221.5127" y1="682.7512" y2="682.7512"/><g data-visibility-modifier="PUBLIC_METHOD"><ellipse cx="18" cy="696.3997" fill="#84BE84" rx="3" ry="3" style="stroke:#038048;stroke-width:1;"/></g><text fill="#000000" font-family="sans-serif" font-size="14" lengthAdjust="spacing" textLength="189.5127" x="27" y="699.7464">commitTransaction() : bool</text></g><!--class Batch--><g class="entity" data-qualified-name="Batch" data-source-line="30" id="ent0006"><rect fill="#F1F1F1" height="145.7813" rx="2.5" ry="2.5" style="stroke:#181818;stroke-width:0.5;" width="187.7861" x="257.86" y="553.12"/><ellipse cx="327.3815" cy="569.12" fill="#ADD1B2" rx="11" ry="11" style="stroke:#181818;stroke-width:1;"/><path d="M330.3502,574.7606 Q329.7721,575.0575 329.1315,575.1981 Q328.4909,575.3544 327.7877,575.3544 Q325.2877,575.3544 323.9596,573.7137 Q322.6471,572.0575 322.6471,568.9325 Q322.6471,565.8075 323.9596,564.1512 Q325.2877,562.495 327.7877,562.495 Q328.4909,562.495 329.1315,562.6512 Q329.7877,562.8075 330.3502,563.1044 L330.3502,565.8231 Q329.7252,565.245 329.1315,564.9794 Q328.5377,564.6981 327.9127,564.6981 Q326.569,564.6981 325.8815,565.7762 Q325.194,566.8387 325.194,568.9325 Q325.194,571.0262 325.8815,572.1044 Q326.569,573.1669 327.9127,573.1669 Q328.5377,573.1669 329.1315,572.9012 Q329.7252,572.62 330.3502,572.0419 L330.3502,574.7606 Z " fill="#000000"/><text fill="#000000" font-family="sans-serif" font-size="14" lengthAdjust="spacing" textLength="40.2432" x="347.8815" y="573.9667">Batch</text><line style="stroke:#181818;stroke-width:0.5;" x1="258.86" x2="444.6461" y1="585.12" y2="585.12"/><g data-visibility-modifier="PUBLIC_FIELD"><ellipse cx="268.86" cy="598.7684" fill="none" rx="3" ry="3" style="stroke:#038048;stroke-width:1;"/></g><text fill="#000000" font-family="sans-serif" font-size="14" lengthAdjust="spacing" textLength="140.4033" x="277.86" y="602.1151">string batchNumber</text><g data-visibility-modifier="PUBLIC_FIELD"><ellipse cx="268.86" cy="615.0653" fill="none" rx="3" ry="3" style="stroke:#038048;stroke-width:1;"/></g><text fill="#000000" font-family="sans-serif" font-size="14" lengthAdjust="spacing" textLength="144.9629" x="277.86" y="618.412">date productionDate</text><g data-visibility-modifier="PUBLIC_FIELD"><ellipse cx="268.86" cy="631.3622" fill="none" rx="3" ry="3" style="stroke:#038048;stroke-width:1;"/></g><text fill="#000000" font-family="sans-serif" font-size="14" lengthAdjust="spacing" textLength="113.1963" x="277.86" y="634.7089">date expiryDate</text><g data-visibility-modifier="PUBLIC_FIELD"><ellipse cx="268.86" cy="647.6591" fill="none" rx="3" ry="3" style="stroke:#038048;stroke-width:1;"/></g><text fill="#000000" font-family="sans-serif" font-size="14" lengthAdjust="spacing" textLength="87.6572" x="277.86" y="651.0057">string status</text><line style="stroke:#181818;stroke-width:0.5;" x1="258.86" x2="444.6461" y1="658.3075" y2="658.3075"/><g data-visibility-modifier="PUBLIC_METHOD"><ellipse cx="268.86" cy="671.9559" fill="#84BE84" rx="3" ry="3" style="stroke:#038048;stroke-width:1;"/></g><text fill="#000000" font-family="sans-serif" font-size="14" lengthAdjust="spacing" textLength="118.7949" x="277.86" y="675.3026">isExpired() : bool</text><g data-visibility-modifier="PUBLIC_METHOD"><ellipse cx="268.86" cy="688.2528" fill="#84BE84" rx="3" ry="3" style="stroke:#038048;stroke-width:1;"/></g><text fill="#000000" font-family="sans-serif" font-size="14" lengthAdjust="spacing" textLength="161.7861" x="277.86" y="691.5995">getDaysToExpiry() : int</text></g><!--class Product--><g class="entity" data-qualified-name="Product" data-source-line="39" id="ent0007"><rect fill="#F1F1F1" height="88.8594" rx="2.5" ry="2.5" style="stroke:#181818;stroke-width:0.5;" width="103.9141" x="480.8" y="581.58"/><ellipse cx="495.8" cy="601.7128" fill="#ADD1B2" rx="11" ry="11" style="stroke:#181818;stroke-width:1;"/><path d="M498.7688,607.3534 Q498.1906,607.6503 497.55,607.7909 Q496.9094,607.9472 496.2063,607.9472 Q493.7063,607.9472 492.3781,606.3066 Q491.0656,604.6503 491.0656,601.5253 Q491.0656,598.4003 492.3781,596.7441 Q493.7063,595.0878 496.2063,595.0878 Q496.9094,595.0878 497.55,595.2441 Q498.2063,595.4003 498.7688,595.6972 L498.7688,598.4159 Q498.1438,597.8378 497.55,597.5722 Q496.9563,597.2909 496.3313,597.2909 Q494.9875,597.2909 494.3,598.3691 Q493.6125,599.4316 493.6125,601.5253 Q493.6125,603.6191 494.3,604.6972 Q494.9875,605.7597 496.3313,605.7597 Q496.9563,605.7597 497.55,605.4941 Q498.1438,605.2128 498.7688,604.6347 L498.7688,607.3534 Z " fill="#000000"/><text fill="#000000" font-family="sans-serif" font-size="12" font-style="italic" lengthAdjust="spacing" textLength="75.9141" x="507.8" y="597.7187">&#171;Reference&#187;</text><text fill="#000000" font-family="sans-serif" font-size="14" lengthAdjust="spacing" textLength="53.71" x="518.9021" y="613.5439">Product</text><line style="stroke:#181818;stroke-width:0.5;" x1="481.8" x2="583.7141" y1="621.8456" y2="621.8456"/><g data-visibility-modifier="PUBLIC_FIELD"><ellipse cx="491.8" cy="635.4941" fill="none" rx="3" ry="3" style="stroke:#038048;stroke-width:1;"/></g><text fill="#000000" font-family="sans-serif" font-size="14" lengthAdjust="spacing" textLength="35.4785" x="500.8" y="638.8407">int id</text><g data-visibility-modifier="PUBLIC_FIELD"><ellipse cx="491.8" cy="651.7909" fill="none" rx="3" ry="3" style="stroke:#038048;stroke-width:1;"/></g><text fill="#000000" font-family="sans-serif" font-size="14" lengthAdjust="spacing" textLength="68.9131" x="500.8" y="655.1376">string sku</text><line style="stroke:#181818;stroke-width:0.5;" x1="481.8" x2="583.7141" y1="662.4394" y2="662.4394"/></g><!--link Warehouse to WarehouseLocation--><g class="link" data-entity-1="ent0002" data-entity-2="ent0003" data-link-type="composition" data-source-line="44" id="lnk8"><path codeLine="44" d="M351.76,104.33 C351.76,128.07 351.76,144.67 351.76,168.42" fill="none" id="Warehouse-to-WarehouseLocation" style="stroke:#181818;stroke-width:1;"/><polygon fill="#181818" points="351.76,180.42,355.76,174.42,351.76,168.42,347.76,174.42,351.76,180.42" style="stroke:#181818;stroke-width:1;"/><text fill="#000000" font-family="sans-serif" font-size="13" lengthAdjust="spacing" textLength="61.9468" x="352.76" y="146.9569">partitions</text><text fill="#000000" font-family="sans-serif" font-size="13" lengthAdjust="spacing" textLength="8.271" x="343.2407" y="123.9825">1</text><text fill="#000000" font-family="sans-serif" font-size="13" lengthAdjust="spacing" textLength="6.5" x="345.3912" y="169.915">*</text></g><!--link WarehouseLocation to InventoryStock--><g class="link" data-entity-1="ent0003" data-entity-2="ent0004" data-link-type="aggregation" data-source-line="45" id="lnk9"><path codeLine="45" d="M351.76,278.11 C351.76,301.55 351.76,317.93 351.76,342.39" fill="none" id="WarehouseLocation-to-InventoryStock" style="stroke:#181818;stroke-width:1;"/><polygon fill="none" points="351.76,354.39,355.76,348.39,351.76,342.39,347.76,348.39,351.76,354.39" style="stroke:#181818;stroke-width:1;"/><text fill="#000000" font-family="sans-serif" font-size="13" lengthAdjust="spacing" textLength="34.8296" x="352.76" y="320.8469">holds</text><text fill="#000000" font-family="sans-serif" font-size="13" lengthAdjust="spacing" textLength="8.271" x="343.2415" y="297.7477">1</text><text fill="#000000" font-family="sans-serif" font-size="13" lengthAdjust="spacing" textLength="6.5" x="345.4255" y="343.606">*</text></g><!--link InventoryStock to Product--><g class="link" data-entity-1="ent0004" data-entity-2="ent0007" data-link-type="dependency" data-source-line="46" id="lnk10"><path codeLine="46" d="M406.84,468.25 C416,478 425.28,488.17 433.76,497.97 C456.98,524.83 477.9097,551.5253 496.7497,576.4253" fill="none" id="InventoryStock-to-Product" style="stroke:#181818;stroke-width:1;"/><polygon fill="#181818" points="500.37,581.21,498.1294,571.6194,497.3531,577.2227,491.7498,576.4464,500.37,581.21" style="stroke:#181818;stroke-width:1;"/><text fill="#000000" font-family="sans-serif" font-size="13" lengthAdjust="spacing" textLength="29.3706" x="448.76" y="511.0369">item</text><text fill="#000000" font-family="sans-serif" font-size="13" lengthAdjust="spacing" textLength="8.271" x="405.0825" y="488.1708">1</text><text fill="#000000" font-family="sans-serif" font-size="13" lengthAdjust="spacing" textLength="8.271" x="487.0456" y="570.6051">1</text></g><!--link InventoryStock to Batch--><g class="link" data-entity-1="ent0004" data-entity-2="ent0006" data-link-type="dependency" data-source-line="47" id="lnk11"><path codeLine="47" d="M351.76,468.24 C351.76,494.08 351.76,519.1 351.76,546.7" fill="none" id="InventoryStock-to-Batch" style="stroke:#181818;stroke-width:1;"/><polygon fill="#181818" points="351.76,552.7,355.76,543.7,351.76,547.7,347.76,543.7,351.76,552.7" style="stroke:#181818;stroke-width:1;"/><text fill="#000000" font-family="sans-serif" font-size="13" lengthAdjust="spacing" textLength="72.2808" x="352.76" y="511.0369">specific_lot</text><text fill="#000000" font-family="sans-serif" font-size="13" lengthAdjust="spacing" textLength="8.271" x="343.2897" y="488.1596">1</text><text fill="#000000" font-family="sans-serif" font-size="13" lengthAdjust="spacing" textLength="8.271" x="343.3923" y="542.071">1</text></g><!--reverse link InventoryStock to InventoryTrans--><g class="link" data-entity-1="ent0004" data-entity-2="ent0005" data-link-type="composition" data-source-line="48" id="lnk12"><path codeLine="48" d="M258.7636,475.6315 C246.1536,485.0715 243.17,487.9 231.76,497.97 C215.57,512.26 199.23,528.55 184.11,544.6" fill="none" id="InventoryStock-backto-InventoryTrans" style="stroke:#181818;stroke-width:1;"/><polygon fill="#181818" points="268.37,468.44,261.1696,468.8336,258.7636,475.6315,265.964,475.2379,268.37,468.44" style="stroke:#181818;stroke-width:1;"/><text fill="#000000" font-family="sans-serif" font-size="13" lengthAdjust="spacing" textLength="110.1699" x="232.76" y="511.0369">logs_movements</text><text fill="#000000" font-family="sans-serif" font-size="13" lengthAdjust="spacing" textLength="8.271" x="250.2818" y="487.98">1</text><text fill="#000000" font-family="sans-serif" font-size="13" lengthAdjust="spacing" textLength="6.5" x="183.8338" y="534.032">*</text></g><?plantuml-src VL9DRy8m3BttLqIS65CFkrQ8myQa8KrZOaWx8fCQY6ZZ4hlLgcd_VMbJrl4XUcdoRB_tObjdmAm-mU6EIaRr7Id_tHihogJXpEACtIeBEGP0xr3lFuGSRF492j16wk6TIjGc8v3e9uhqAUihQH13zWQxfhHZDppNkYmCfYtdcYZhAMUsGkkLQo-lz__v3YLOyKRczWLiUealaD5Ls4LSk0qFKdiDd_SdrOKp13uBL-GzNpfPEh1yusLI5tXfvoJ5uMPvakM1MSUIWg2O79KqEbD_wuP0UMwa5GVTDFTAjnv1zEvehTDQDzXRcQ_HzGAgS9IMBKslq0Rmgp2kxi6EXGMavEF0dfka__DgyItA56fUKXiE6-8Vrzjx3w9gF5xW1XrQZPF9ZKxolcoA-sKTF0nK78_KO3Iuico9Ai3vNlipHvVXK4njyTbQ9Mf7MShH6Hmg9kt_wDq_IJ2_bHc6a2WkK9kDqQkCv5h-A8vFlOJ5IbH6MrxbL67kSVu5?></g></svg>