<svg xmlns="http://www.w3.org/2000/svg" xmlns:xlink="http://www.w3.org/1999/xlink" contentStyleType="text/css" data-diagram-type="CLASS" height="357px" preserveAspectRatio="none" style="width:508px;height:357px;background:#FFFFFF;" version="1.1" viewBox="0 0 508 357" width="508px" zoomAndPan="magnify"><?plantuml 1.2026.3beta6?><defs/><g><!--class CommercialClient--><g class="entity" data-qualified-name="CommercialClient" data-source-line="1" id="ent0002"><rect fill="#F1F1F1" height="145.7813" rx="2.5" ry="2.5" style="stroke:#181818;stroke-width:0.5;" width="210.4609" x="202.85" y="197.19"/><ellipse cx="242.1003" cy="213.19" fill="#ADD1B2" rx="11" ry="11" style="stroke:#181818;stroke-width:1;"/><path d="M245.0691,218.8306 Q244.491,219.1275 243.8503,219.2681 Q243.2097,219.4244 242.5066,219.4244 Q240.0066,219.4244 238.6785,217.7838 Q237.366,216.1275 237.366,213.0025 Q237.366,209.8775 238.6785,208.2213 Q240.0066,206.565 242.5066,206.565 Q243.2097,206.565 243.8503,206.7213 Q244.5066,206.8775 245.0691,207.1744 L245.0691,209.8931 Q244.4441,209.315 243.8503,209.0494 Q243.2566,208.7681 242.6316,208.7681 Q241.2878,208.7681 240.6003,209.8463 Q239.9128,210.9088 239.9128,213.0025 Q239.9128,215.0963 240.6003,216.1744 Q241.2878,217.2369 242.6316,217.2369 Q243.2566,217.2369 243.8503,216.9713 Q244.4441,216.69 245.0691,216.1119 L245.0691,218.8306 Z " fill="#000000"/><text fill="#000000" font-family="sans-serif" font-size="14" lengthAdjust="spacing" textLength="124.5713" x="261.4893" y="218.0367">CommercialClient</text><line style="stroke:#181818;stroke-width:0.5;" x1="203.85" x2="412.3109" y1="229.19" y2="229.19"/><g data-visibility-modifier="PUBLIC_FIELD"><ellipse cx="213.85" cy="242.8384" fill="none" rx="3" ry="3" style="stroke:#038048;stroke-width:1;"/></g><text fill="#000000" font-family="sans-serif" font-size="14" lengthAdjust="spacing" textLength="35.4785" x="222.85" y="246.1851">int id</text><g data-visibility-modifier="PUBLIC_FIELD"><ellipse cx="213.85" cy="259.1353" fill="none" rx="3" ry="3" style="stroke:#038048;stroke-width:1;"/></g><text fill="#000000" font-family="sans-serif" font-size="14" lengthAdjust="spacing" textLength="66.9648" x="222.85" y="262.482">string ruc</text><g data-visibility-modifier="PUBLIC_FIELD"><ellipse cx="213.85" cy="275.4322" fill="none" rx="3" ry="3" style="stroke:#038048;stroke-width:1;"/></g><text fill="#000000" font-family="sans-serif" font-size="14" lengthAdjust="spacing" textLength="146.959" x="222.85" y="278.7789">string businessName</text><g data-visibility-modifier="PUBLIC_FIELD"><ellipse cx="213.85" cy="291.7291" fill="none" rx="3" ry="3" style="stroke:#038048;stroke-width:1;"/></g><text fill="#000000" font-family="sans-serif" font-size="14" lengthAdjust="spacing" textLength="134.8047" x="222.85" y="295.0757">string legalAddress</text><g data-visibility-modifier="PUBLIC_FIELD"><ellipse cx="213.85" cy="308.0259" fill="none" rx="3" ry="3" style="stroke:#038048;stroke-width:1;"/></g><text fill="#000000" font-family="sans-serif" font-size="14" lengthAdjust="spacing" textLength="140.3965" x="222.85" y="311.3726">string contactPhone</text><line style="stroke:#181818;stroke-width:0.5;" x1="203.85" x2="412.3109" y1="318.6744" y2="318.6744"/><g data-visibility-modifier="PUBLIC_METHOD"><ellipse cx="213.85" cy="332.3228" fill="#84BE84" rx="3" ry="3" style="stroke:#038048;stroke-width:1;"/></g><text fill="#000000" font-family="sans-serif" font-size="14" lengthAdjust="spacing" textLength="184.4609" x="222.85" y="335.6695">updateContactInfo() : void</text></g><!--class Zone--><g class="entity" data-qualified-name="Zone" data-source-line="10" id="ent0003"><rect fill="#F1F1F1" height="113.1875" rx="2.5" ry="2.5" style="stroke:#181818;stroke-width:0.5;" width="342.1553" x="7" y="7"/><ellipse cx="156.0063" cy="23" fill="#ADD1B2" rx="11" ry="11" style="stroke:#181818;stroke-width:1;"/><path d="M158.9751,28.6406 Q158.397,28.9375 157.7563,29.0781 Q157.1157,29.2344 156.4126,29.2344 Q153.9126,29.2344 152.5845,27.5938 Q151.272,25.9375 151.272,22.8125 Q151.272,19.6875 152.5845,18.0313 Q153.9126,16.375 156.4126,16.375 Q157.1157,16.375 157.7563,16.5313 Q158.4126,16.6875 158.9751,16.9844 L158.9751,19.7031 Q158.3501,19.125 157.7563,18.8594 Q157.1626,18.5781 156.5376,18.5781 Q155.1938,18.5781 154.5063,19.6563 Q153.8188,20.7188 153.8188,22.8125 Q153.8188,24.9063 154.5063,25.9844 Q155.1938,27.0469 156.5376,27.0469 Q157.1626,27.0469 157.7563,26.7813 Q158.3501,26.5 158.9751,25.9219 L158.9751,28.6406 Z " fill="#000000"/><text fill="#000000" font-family="sans-serif" font-size="14" lengthAdjust="spacing" textLength="35.6426" x="176.5063" y="27.8467">Zone</text><line style="stroke:#181818;stroke-width:0.5;" x1="8" x2="348.1553" y1="39" y2="39"/><g data-visibility-modifier="PUBLIC_FIELD"><ellipse cx="18" cy="52.6484" fill="none" rx="3" ry="3" style="stroke:#038048;stroke-width:1;"/></g><text fill="#000000" font-family="sans-serif" font-size="14" lengthAdjust="spacing" textLength="35.4785" x="27" y="55.9951">int id</text><g data-visibility-modifier="PUBLIC_FIELD"><ellipse cx="18" cy="68.9453" fill="none" rx="3" ry="3" style="stroke:#038048;stroke-width:1;"/></g><text fill="#000000" font-family="sans-serif" font-size="14" lengthAdjust="spacing" textLength="84.3418" x="27" y="72.292">string name</text><g data-visibility-modifier="PUBLIC_FIELD"><ellipse cx="18" cy="85.2422" fill="none" rx="3" ry="3" style="stroke:#038048;stroke-width:1;"/></g><text fill="#000000" font-family="sans-serif" font-size="14" lengthAdjust="spacing" textLength="122.4795" x="27" y="88.5889">string description</text><line style="stroke:#181818;stroke-width:0.5;" x1="8" x2="348.1553" y1="95.8906" y2="95.8906"/><g data-visibility-modifier="PUBLIC_METHOD"><ellipse cx="18" cy="109.5391" fill="#84BE84" rx="3" ry="3" style="stroke:#038048;stroke-width:1;"/></g><text fill="#000000" font-family="sans-serif" font-size="14" lengthAdjust="spacing" textLength="316.1553" x="27" y="112.8857">assignClient(client : CommercialClient) : void</text></g><!--class User--><g class="entity" data-qualified-name="User" data-source-line="17" id="ent0004"><rect fill="#F1F1F1" height="88.8594" rx="2.5" ry="2.5" style="stroke:#181818;stroke-width:0.5;" width="109.248" x="384.45" y="19.17"/><ellipse cx="401.8503" cy="39.3028" fill="#ADD1B2" rx="11" ry="11" style="stroke:#181818;stroke-width:1;"/><path d="M404.819,44.9434 Q404.2409,45.2403 403.6003,45.3809 Q402.9597,45.5372 402.2565,45.5372 Q399.7565,45.5372 398.4284,43.8966 Q397.1159,42.2403 397.1159,39.1153 Q397.1159,35.9903 398.4284,34.3341 Q399.7565,32.6778 402.2565,32.6778 Q402.9597,32.6778 403.6003,32.8341 Q404.2565,32.9903 404.819,33.2872 L404.819,36.0059 Q404.194,35.4278 403.6003,35.1622 Q403.0065,34.8809 402.3815,34.8809 Q401.0378,34.8809 400.3503,35.9591 Q399.6628,37.0216 399.6628,39.1153 Q399.6628,41.2091 400.3503,42.2872 Q401.0378,43.3497 402.3815,43.3497 Q403.0065,43.3497 403.6003,43.0841 Q404.194,42.8028 404.819,42.2247 L404.819,44.9434 Z " fill="#000000"/><text fill="#000000" font-family="sans-serif" font-size="12" font-style="italic" lengthAdjust="spacing" textLength="75.9141" x="414.3837" y="35.3087">&#171;Reference&#187;</text><text fill="#000000" font-family="sans-serif" font-size="14" lengthAdjust="spacing" textLength="31.9102" x="436.3856" y="51.1339">User</text><line style="stroke:#181818;stroke-width:0.5;" x1="385.45" x2="492.698" y1="59.4356" y2="59.4356"/><g data-visibility-modifier="PUBLIC_FIELD"><ellipse cx="395.45" cy="73.0841" fill="none" rx="3" ry="3" style="stroke:#038048;stroke-width:1;"/></g><text fill="#000000" font-family="sans-serif" font-size="14" lengthAdjust="spacing" textLength="35.4785" x="404.45" y="76.4307">int id</text><g data-visibility-modifier="PUBLIC_FIELD"><ellipse cx="395.45" cy="89.3809" fill="none" rx="3" ry="3" style="stroke:#038048;stroke-width:1;"/></g><text fill="#000000" font-family="sans-serif" font-size="14" lengthAdjust="spacing" textLength="83.248" x="404.45" y="92.7276">string email</text><line style="stroke:#181818;stroke-width:0.5;" x1="385.45" x2="492.698" y1="100.0294" y2="100.0294"/></g><!--link Zone to CommercialClient--><g class="link" data-entity-1="ent0003" data-entity-2="ent0002" data-link-type="composition" data-source-line="22" id="lnk5"><path codeLine="22" d="M213.6,120.47 C228.56,144 239.7196,161.5647 255.6596,186.6247" fill="none" id="Zone-to-CommercialClient" style="stroke:#181818;stroke-width:1;"/><polygon fill="#181818" points="262.1,196.75,262.2549,189.5406,255.6596,186.6247,255.5047,193.8342,262.1,196.75" style="stroke:#181818;stroke-width:1;"/><text fill="#000000" font-family="sans-serif" font-size="13" lengthAdjust="spacing" textLength="96.1289" x="244.08" y="163.2569">coverage_area</text><text fill="#000000" font-family="sans-serif" font-size="13" lengthAdjust="spacing" textLength="8.271" x="209.4583" y="140.3908">1</text><text fill="#000000" font-family="sans-serif" font-size="13" lengthAdjust="spacing" textLength="6.5" x="251.4554" y="186.1191">*</text></g><!--link User to CommercialClient--><g class="link" data-entity-1="ent0004" data-entity-2="ent0002" data-link-type="dependency" data-source-line="23" id="lnk6"><path codeLine="23" d="M410.97,108.46 C394.51,134.16 376.5467,162.2079 357.6667,191.6779" fill="none" id="User-to-CommercialClient" style="stroke:#181818;stroke-width:1;"/><polygon fill="#181818" points="354.43,196.73,362.6531,191.3096,357.1272,192.5199,355.9169,186.994,354.43,196.73" style="stroke:#181818;stroke-width:1;"/><text fill="#000000" font-family="sans-serif" font-size="13" lengthAdjust="spacing" textLength="58.5762" x="382.08" y="163.2569">accesses</text><text fill="#000000" font-family="sans-serif" font-size="13" lengthAdjust="spacing" textLength="6.5" x="400.4383" y="128.2271">*</text><text fill="#000000" font-family="sans-serif" font-size="13" lengthAdjust="spacing" textLength="24.8066" x="333.7424" y="186.0971">0..1</text></g><?plantuml-src VL31QiCm3BtdAuHFRKVAUWqbC7BgPOp1BhqKJLOpWICNs-bbxD_dnhra6VL9rjFJUthaC4Re_31m847NEM5Dy5r1Va-IIx6bZYc8zX16clq_noZACRxYm3F0SO_knTgGmHb0NXDIUlloUcUC5uk9kz8_wDclrj30rMVfdwgYoU8nJp-mfN_bBKSASadYjVJp4kcrtBUYScQpk7mf_14vm7x_pcSEhCHj-y063oZknfticfs1kjw0sPXbn4qEuie1UpvXOAmcdTjaNRTWdhVRtRya9Cg1Slm5?></g></svg>