<svg xmlns="http://www.w3.org/2000/svg" xmlns:xlink="http://www.w3.org/1999/xlink" contentStyleType="text/css" data-diagram-type="CLASS" height="540px" preserveAspectRatio="none" style="width:604px;height:540px;background:#FFFFFF;" version="1.1" viewBox="0 0 604 540" width="604px" zoomAndPan="magnify"><?plantuml 1.2026.3beta6?><defs/><g><!--class CommercialClient--><g class="entity" data-qualified-name="CommercialClient" data-source-line="1" id="ent0002"><rect fill="#F1F1F1" height="88.8594" rx="2.5" ry="2.5" style="stroke:#181818;stroke-width:0.5;" width="172.959" x="133.81" y="7"/><ellipse cx="156.1845" cy="27.1328" fill="#ADD1B2" rx="11" ry="11" style="stroke:#181818;stroke-width:1;"/><path d="M159.1532,32.7734 Q158.5751,33.0703 157.9345,33.2109 Q157.2938,33.3672 156.5907,33.3672 Q154.0907,33.3672 152.7626,31.7266 Q151.4501,30.0703 151.4501,26.9453 Q151.4501,23.8203 152.7626,22.1641 Q154.0907,20.5078 156.5907,20.5078 Q157.2938,20.5078 157.9345,20.6641 Q158.5907,20.8203 159.1532,21.1172 L159.1532,23.8359 Q158.5282,23.2578 157.9345,22.9922 Q157.3407,22.7109 156.7157,22.7109 Q155.372,22.7109 154.6845,23.7891 Q153.997,24.8516 153.997,26.9453 Q153.997,29.0391 154.6845,30.1172 Q155.372,31.1797 156.7157,31.1797 Q157.3407,31.1797 157.9345,30.9141 Q158.5282,30.6328 159.1532,30.0547 L159.1532,32.7734 Z " fill="#000000"/><text fill="#000000" font-family="sans-serif" font-size="12" font-style="italic" lengthAdjust="spacing" textLength="75.9141" x="196.1518" y="23.1387">&#171;Reference&#187;</text><text fill="#000000" font-family="sans-serif" font-size="14" lengthAdjust="spacing" textLength="124.5713" x="171.8232" y="38.9639">CommercialClient</text><line style="stroke:#181818;stroke-width:0.5;" x1="134.81" x2="305.769" y1="47.2656" y2="47.2656"/><g data-visibility-modifier="PUBLIC_FIELD"><ellipse cx="144.81" cy="60.9141" fill="none" rx="3" ry="3" style="stroke:#038048;stroke-width:1;"/></g><text fill="#000000" font-family="sans-serif" font-size="14" lengthAdjust="spacing" textLength="35.4785" x="153.81" y="64.2607">int id</text><g data-visibility-modifier="PUBLIC_FIELD"><ellipse cx="144.81" cy="77.2109" fill="none" rx="3" ry="3" style="stroke:#038048;stroke-width:1;"/></g><text fill="#000000" font-family="sans-serif" font-size="14" lengthAdjust="spacing" textLength="146.959" x="153.81" y="80.5576">string businessName</text><line style="stroke:#181818;stroke-width:0.5;" x1="134.81" x2="305.769" y1="87.8594" y2="87.8594"/></g><!--class CommercialCondition--><g class="entity" data-qualified-name="CommercialCondition" data-source-line="6" id="ent0003"><rect fill="#F1F1F1" height="145.7813" rx="2.5" ry="2.5" style="stroke:#181818;stroke-width:0.5;" width="300.5859" x="7" y="172.86"/><ellipse cx="77.6187" cy="188.86" fill="#ADD1B2" rx="11" ry="11" style="stroke:#181818;stroke-width:1;"/><path d="M80.5874,194.5006 Q80.0093,194.7975 79.3687,194.9381 Q78.728,195.0944 78.0249,195.0944 Q75.5249,195.0944 74.1968,193.4538 Q72.8843,191.7975 72.8843,188.6725 Q72.8843,185.5475 74.1968,183.8913 Q75.5249,182.235 78.0249,182.235 Q78.728,182.235 79.3687,182.3913 Q80.0249,182.5475 80.5874,182.8444 L80.5874,185.5631 Q79.9624,184.985 79.3687,184.7194 Q78.7749,184.4381 78.1499,184.4381 Q76.8062,184.4381 76.1187,185.5163 Q75.4312,186.5788 75.4312,188.6725 Q75.4312,190.7663 76.1187,191.8444 Q76.8062,192.9069 78.1499,192.9069 Q78.7749,192.9069 79.3687,192.6413 Q79.9624,192.36 80.5874,191.7819 L80.5874,194.5006 Z " fill="#000000"/><text fill="#000000" font-family="sans-serif" font-size="14" lengthAdjust="spacing" textLength="150.8486" x="98.1187" y="193.7067">CommercialCondition</text><line style="stroke:#181818;stroke-width:0.5;" x1="8" x2="306.5859" y1="204.86" y2="204.86"/><g data-visibility-modifier="PUBLIC_FIELD"><ellipse cx="18" cy="218.5084" fill="none" rx="3" ry="3" style="stroke:#038048;stroke-width:1;"/></g><text fill="#000000" font-family="sans-serif" font-size="14" lengthAdjust="spacing" textLength="110.9404" x="27" y="221.8551">float creditLimit</text><g data-visibility-modifier="PUBLIC_FIELD"><ellipse cx="18" cy="234.8053" fill="none" rx="3" ry="3" style="stroke:#038048;stroke-width:1;"/></g><text fill="#000000" font-family="sans-serif" font-size="14" lengthAdjust="spacing" textLength="142.7959" x="27" y="238.152">float currentBalance</text><g data-visibility-modifier="PUBLIC_FIELD"><ellipse cx="18" cy="251.1022" fill="none" rx="3" ry="3" style="stroke:#038048;stroke-width:1;"/></g><text fill="#000000" font-family="sans-serif" font-size="14" lengthAdjust="spacing" textLength="150.8555" x="27" y="254.4489">string paymentTerms</text><g data-visibility-modifier="PUBLIC_FIELD"><ellipse cx="18" cy="267.3991" fill="none" rx="3" ry="3" style="stroke:#038048;stroke-width:1;"/></g><text fill="#000000" font-family="sans-serif" font-size="14" lengthAdjust="spacing" textLength="141.3262" x="27" y="270.7457">int gracePeriodDays</text><line style="stroke:#181818;stroke-width:0.5;" x1="8" x2="306.5859" y1="278.0475" y2="278.0475"/><g data-visibility-modifier="PUBLIC_METHOD"><ellipse cx="18" cy="291.6959" fill="#84BE84" rx="3" ry="3" style="stroke:#038048;stroke-width:1;"/></g><text fill="#000000" font-family="sans-serif" font-size="14" lengthAdjust="spacing" textLength="274.5859" x="27" y="295.0426">isCreditApproved(amount : float) : bool</text><g data-visibility-modifier="PUBLIC_METHOD"><ellipse cx="18" cy="307.9928" fill="#84BE84" rx="3" ry="3" style="stroke:#038048;stroke-width:1;"/></g><text fill="#000000" font-family="sans-serif" font-size="14" lengthAdjust="spacing" textLength="201.4551" x="27" y="311.3395">calculateCurrentRisk() : float</text></g><!--class PriceList--><g class="entity" data-qualified-name="PriceList" data-source-line="15" id="ent0004"><rect fill="#F1F1F1" height="129.4844" rx="2.5" ry="2.5" style="stroke:#181818;stroke-width:0.5;" width="319.6035" x="269.49" y="395.65"/><ellipse cx="395.6062" cy="411.65" fill="#ADD1B2" rx="11" ry="11" style="stroke:#181818;stroke-width:1;"/><path d="M398.575,417.2906 Q397.9968,417.5875 397.3562,417.7281 Q396.7156,417.8844 396.0125,417.8844 Q393.5125,417.8844 392.1843,416.2438 Q390.8718,414.5875 390.8718,411.4625 Q390.8718,408.3375 392.1843,406.6813 Q393.5125,405.025 396.0125,405.025 Q396.7156,405.025 397.3562,405.1813 Q398.0125,405.3375 398.575,405.6344 L398.575,408.3531 Q397.95,407.775 397.3562,407.5094 Q396.7625,407.2281 396.1375,407.2281 Q394.7937,407.2281 394.1062,408.3063 Q393.4187,409.3688 393.4187,411.4625 Q393.4187,413.5563 394.1062,414.6344 Q394.7937,415.6969 396.1375,415.6969 Q396.7625,415.6969 397.3562,415.4313 Q397.95,415.15 398.575,414.5719 L398.575,417.2906 Z " fill="#000000"/><text fill="#000000" font-family="sans-serif" font-size="14" lengthAdjust="spacing" textLength="58.8711" x="416.1062" y="416.4967">PriceList</text><line style="stroke:#181818;stroke-width:0.5;" x1="270.49" x2="588.0935" y1="427.65" y2="427.65"/><g data-visibility-modifier="PUBLIC_FIELD"><ellipse cx="280.49" cy="441.2984" fill="none" rx="3" ry="3" style="stroke:#038048;stroke-width:1;"/></g><text fill="#000000" font-family="sans-serif" font-size="14" lengthAdjust="spacing" textLength="35.4785" x="289.49" y="444.6451">int id</text><g data-visibility-modifier="PUBLIC_FIELD"><ellipse cx="280.49" cy="457.5953" fill="none" rx="3" ry="3" style="stroke:#038048;stroke-width:1;"/></g><text fill="#000000" font-family="sans-serif" font-size="14" lengthAdjust="spacing" textLength="84.3418" x="289.49" y="460.942">string name</text><g data-visibility-modifier="PUBLIC_FIELD"><ellipse cx="280.49" cy="473.8922" fill="none" rx="3" ry="3" style="stroke:#038048;stroke-width:1;"/></g><text fill="#000000" font-family="sans-serif" font-size="14" lengthAdjust="spacing" textLength="106.1895" x="289.49" y="477.2389">string currency</text><g data-visibility-modifier="PUBLIC_FIELD"><ellipse cx="280.49" cy="490.1891" fill="none" rx="3" ry="3" style="stroke:#038048;stroke-width:1;"/></g><text fill="#000000" font-family="sans-serif" font-size="14" lengthAdjust="spacing" textLength="89.0928" x="289.49" y="493.5357">bool isActive</text><line style="stroke:#181818;stroke-width:0.5;" x1="270.49" x2="588.0935" y1="500.8375" y2="500.8375"/><g data-visibility-modifier="PUBLIC_METHOD"><ellipse cx="280.49" cy="514.4859" fill="#84BE84" rx="3" ry="3" style="stroke:#038048;stroke-width:1;"/></g><text fill="#000000" font-family="sans-serif" font-size="14" lengthAdjust="spacing" textLength="293.6035" x="289.49" y="517.8326">calculateDiscount(basePrice : float) : float</text></g><!--class PriceListAssignment--><g class="entity" data-qualified-name="PriceListAssignment" data-source-line="23" id="ent0005"><rect fill="#F1F1F1" height="80.5938" rx="2.5" ry="2.5" style="stroke:#181818;stroke-width:0.5;" width="173.2988" x="342.64" y="205.46"/><ellipse cx="357.64" cy="221.46" fill="#ADD1B2" rx="11" ry="11" style="stroke:#181818;stroke-width:1;"/><path d="M360.6088,227.1006 Q360.0306,227.3975 359.39,227.5381 Q358.7494,227.6944 358.0463,227.6944 Q355.5463,227.6944 354.2181,226.0537 Q352.9056,224.3975 352.9056,221.2725 Q352.9056,218.1475 354.2181,216.4912 Q355.5463,214.835 358.0463,214.835 Q358.7494,214.835 359.39,214.9912 Q360.0463,215.1475 360.6088,215.4444 L360.6088,218.1631 Q359.9838,217.585 359.39,217.3194 Q358.7963,217.0381 358.1713,217.0381 Q356.8275,217.0381 356.14,218.1162 Q355.4525,219.1787 355.4525,221.2725 Q355.4525,223.3662 356.14,224.4444 Q356.8275,225.5069 358.1713,225.5069 Q358.7963,225.5069 359.39,225.2412 Q359.9838,224.96 360.6088,224.3819 L360.6088,227.1006 Z " fill="#000000"/><text fill="#000000" font-family="sans-serif" font-size="14" lengthAdjust="spacing" textLength="141.2988" x="371.64" y="226.3067">PriceListAssignment</text><line style="stroke:#181818;stroke-width:0.5;" x1="343.64" x2="514.9388" y1="237.46" y2="237.46"/><g data-visibility-modifier="PUBLIC_FIELD"><ellipse cx="353.64" cy="251.1084" fill="none" rx="3" ry="3" style="stroke:#038048;stroke-width:1;"/></g><text fill="#000000" font-family="sans-serif" font-size="14" lengthAdjust="spacing" textLength="35.4785" x="362.64" y="254.4551">int id</text><g data-visibility-modifier="PUBLIC_FIELD"><ellipse cx="353.64" cy="267.4053" fill="none" rx="3" ry="3" style="stroke:#038048;stroke-width:1;"/></g><text fill="#000000" font-family="sans-serif" font-size="14" lengthAdjust="spacing" textLength="145.0313" x="362.64" y="270.752">datetime assignedAt</text><line style="stroke:#181818;stroke-width:0.5;" x1="343.64" x2="514.9388" y1="278.0538" y2="278.0538"/></g><!--reverse link CommercialClient to CommercialCondition--><g class="link" data-entity-1="ent0002" data-entity-2="ent0003" data-link-type="composition" data-source-line="28" id="lnk6"><path codeLine="28" d="M202.2613,107.4827 C194.8513,130.0827 189.36,146.88 180.92,172.62" fill="none" id="CommercialClient-backto-CommercialCondition" style="stroke:#181818;stroke-width:1;"/><polygon fill="#181818" points="206,96.08,200.3297,100.5351,202.2613,107.4827,207.9316,103.0276,206,96.08" style="stroke:#181818;stroke-width:1;"/><text fill="#000000" font-family="sans-serif" font-size="13" lengthAdjust="spacing" textLength="84.1763" x="196.29" y="138.9269">governed_by</text><text fill="#000000" font-family="sans-serif" font-size="13" lengthAdjust="spacing" textLength="8.271" x="195.3336" y="115.8162">1</text><text fill="#000000" font-family="sans-serif" font-size="13" lengthAdjust="spacing" textLength="8.271" x="174.8654" y="161.7564">1</text></g><!--link CommercialClient to PriceListAssignment--><g class="link" data-entity-1="ent0002" data-entity-2="ent0005" data-link-type="aggregation" data-source-line="29" id="lnk7"><path codeLine="29" d="M267.98,96.32 C303.52,129.02 342.8293,165.1948 377.2493,196.8648" fill="none" id="CommercialClient-to-PriceListAssignment" style="stroke:#181818;stroke-width:1;"/><polygon fill="none" points="386.08,204.99,384.373,197.9838,377.2493,196.8648,378.9563,203.871,386.08,204.99" style="stroke:#181818;stroke-width:1;"/><text fill="#000000" font-family="sans-serif" font-size="13" lengthAdjust="spacing" textLength="72.9346" x="319.29" y="138.9269">mapped_to</text><text fill="#000000" font-family="sans-serif" font-size="13" lengthAdjust="spacing" textLength="8.271" x="266.143" y="115.7636">1</text><text fill="#000000" font-family="sans-serif" font-size="13" lengthAdjust="spacing" textLength="6.5" x="372.7552" y="194.3749">*</text></g><!--link PriceListAssignment to PriceList--><g class="link" data-entity-1="ent0005" data-entity-2="ent0004" data-link-type="dependency" data-source-line="30" id="lnk8"><path codeLine="30" d="M429.29,286.25 C429.29,316.88 429.29,353.94 429.29,389.46" fill="none" id="PriceListAssignment-to-PriceList" style="stroke:#181818;stroke-width:1;"/><polygon fill="#181818" points="429.29,395.46,433.29,386.46,429.29,390.46,425.29,386.46,429.29,395.46" style="stroke:#181818;stroke-width:1;"/><text fill="#000000" font-family="sans-serif" font-size="13" lengthAdjust="spacing" textLength="69.418" x="430.29" y="361.7169">references</text><text fill="#000000" font-family="sans-serif" font-size="13" lengthAdjust="spacing" textLength="6.5" x="422.8518" y="305.9764">*</text><text fill="#000000" font-family="sans-serif" font-size="13" lengthAdjust="spacing" textLength="8.271" x="420.8671" y="384.6119">1</text></g><?plantuml-src VLBBQiCm4BpxAnQVaXGVUZKXu3h744BelQpbZLcgXz7A0LFwxvLjJ1vrgul4FcPcPwKqYa3fZ26l67MfcMo0xVPC5_9a5Ursy9L0F2yS4rnFRmcURGDL9sn9v8Y6akyaKSzmpjOSsDaPuw8T1b2UOlZ0XiD3kFEHChoXnaZyGDHYRsBgdRoHcvh6ew8JUNRr7liv8UK8NxIjTrUgLsXS5ujp65dMyL4vfwTYXLfr6WEL4_UPvNErdcjl8vqyApgmX7_Ci8C9zu5f7jLFmO4KM0eL-4fFx7iMDOXSLIWqSjtB_KjB8SAD7NnPKbL7tC260CSogeiHuzUkqzSKDbastakRow69Dle8y57ro-rPvY3Tf8lASZ3Ojh4vk6GfF_HbsMx4kRcSWvy_eFm0?></g></svg>