<svg xmlns="http://www.w3.org/2000/svg" xmlns:xlink="http://www.w3.org/1999/xlink" contentStyleType="text/css" data-diagram-type="CLASS" height="754px" preserveAspectRatio="none" style="width:766px;height:754px;background:#FFFFFF;" version="1.1" viewBox="0 0 766 754" width="766px" zoomAndPan="magnify"><?plantuml 1.2026.3beta6?><defs/><g><!--class Order--><g class="entity" data-qualified-name="Order" data-source-line="1" id="ent0002"><rect fill="#F1F1F1" height="210.9688" rx="2.5" ry="2.5" style="stroke:#181818;stroke-width:0.5;" width="301.4609" x="180.25" y="172.86"/><ellipse cx="306.7148" cy="188.86" fill="#ADD1B2" rx="11" ry="11" style="stroke:#181818;stroke-width:1;"/><path d="M309.6836,194.5006 Q309.1055,194.7975 308.4648,194.9381 Q307.8242,195.0944 307.1211,195.0944 Q304.6211,195.0944 303.293,193.4538 Q301.9805,191.7975 301.9805,188.6725 Q301.9805,185.5475 303.293,183.8913 Q304.6211,182.235 307.1211,182.235 Q307.8242,182.235 308.4648,182.3913 Q309.1211,182.5475 309.6836,182.8444 L309.6836,185.5631 Q309.0586,184.985 308.4648,184.7194 Q307.8711,184.4381 307.2461,184.4381 Q305.9023,184.4381 305.2148,185.5163 Q304.5273,186.5788 304.5273,188.6725 Q304.5273,190.7663 305.2148,191.8444 Q305.9023,192.9069 307.2461,192.9069 Q307.8711,192.9069 308.4648,192.6413 Q309.0586,192.36 309.6836,191.7819 L309.6836,194.5006 Z " fill="#000000"/><text fill="#000000" font-family="sans-serif" font-size="14" lengthAdjust="spacing" textLength="40.0313" x="327.2148" y="193.7067">Order</text><line style="stroke:#181818;stroke-width:0.5;" x1="181.25" x2="480.7109" y1="204.86" y2="204.86"/><g data-visibility-modifier="PUBLIC_FIELD"><ellipse cx="191.25" cy="218.5084" fill="none" rx="3" ry="3" style="stroke:#038048;stroke-width:1;"/></g><text fill="#000000" font-family="sans-serif" font-size="14" lengthAdjust="spacing" textLength="35.4785" x="200.25" y="221.8551">int id</text><g data-visibility-modifier="PUBLIC_FIELD"><ellipse cx="191.25" cy="234.8053" fill="none" rx="3" ry="3" style="stroke:#038048;stroke-width:1;"/></g><text fill="#000000" font-family="sans-serif" font-size="14" lengthAdjust="spacing" textLength="115.6777" x="200.25" y="238.152">string orderDate</text><g data-visibility-modifier="PUBLIC_FIELD"><ellipse cx="191.25" cy="251.1022" fill="none" rx="3" ry="3" style="stroke:#038048;stroke-width:1;"/></g><text fill="#000000" font-family="sans-serif" font-size="14" lengthAdjust="spacing" textLength="87.6572" x="200.25" y="254.4489">string status</text><g data-visibility-modifier="PUBLIC_FIELD"><ellipse cx="191.25" cy="267.3991" fill="none" rx="3" ry="3" style="stroke:#038048;stroke-width:1;"/></g><text fill="#000000" font-family="sans-serif" font-size="14" lengthAdjust="spacing" textLength="92.9688" x="200.25" y="270.7457">float subtotal</text><g data-visibility-modifier="PUBLIC_FIELD"><ellipse cx="191.25" cy="283.6959" fill="none" rx="3" ry="3" style="stroke:#038048;stroke-width:1;"/></g><text fill="#000000" font-family="sans-serif" font-size="14" lengthAdjust="spacing" textLength="93.3311" x="200.25" y="287.0426">float taxTotal</text><g data-visibility-modifier="PUBLIC_FIELD"><ellipse cx="191.25" cy="299.9928" fill="none" rx="3" ry="3" style="stroke:#038048;stroke-width:1;"/></g><text fill="#000000" font-family="sans-serif" font-size="14" lengthAdjust="spacing" textLength="122.9307" x="200.25" y="303.3395">float totalAmount</text><line style="stroke:#181818;stroke-width:0.5;" x1="181.25" x2="480.7109" y1="310.6413" y2="310.6413"/><g data-visibility-modifier="PUBLIC_METHOD"><ellipse cx="191.25" cy="324.2897" fill="#84BE84" rx="3" ry="3" style="stroke:#038048;stroke-width:1;"/></g><text fill="#000000" font-family="sans-serif" font-size="14" lengthAdjust="spacing" textLength="159.8447" x="200.25" y="327.6364">calculateTotals() : void</text><g data-visibility-modifier="PUBLIC_METHOD"><ellipse cx="191.25" cy="340.5866" fill="#84BE84" rx="3" ry="3" style="stroke:#038048;stroke-width:1;"/></g><text fill="#000000" font-family="sans-serif" font-size="14" lengthAdjust="spacing" textLength="238.5537" x="200.25" y="343.9332">validateCommercialTerms() : bool</text><g data-visibility-modifier="PUBLIC_METHOD"><ellipse cx="191.25" cy="356.8834" fill="#84BE84" rx="3" ry="3" style="stroke:#038048;stroke-width:1;"/></g><text fill="#000000" font-family="sans-serif" font-size="14" lengthAdjust="spacing" textLength="275.4609" x="200.25" y="360.2301">updateStatus(newStatus : string) : void</text><g data-visibility-modifier="PUBLIC_METHOD"><ellipse cx="191.25" cy="373.1803" fill="#84BE84" rx="3" ry="3" style="stroke:#038048;stroke-width:1;"/></g><text fill="#000000" font-family="sans-serif" font-size="14" lengthAdjust="spacing" textLength="120.1553" x="200.25" y="376.527">authorize() : void</text></g><!--class OrderItem--><g class="entity" data-qualified-name="OrderItem" data-source-line="14" id="ent0003"><rect fill="#F1F1F1" height="113.1875" rx="2.5" ry="2.5" style="stroke:#181818;stroke-width:0.5;" width="203.96" x="7" y="460.83"/><ellipse cx="68.7798" cy="476.83" fill="#ADD1B2" rx="11" ry="11" style="stroke:#181818;stroke-width:1;"/><path d="M71.7485,482.4706 Q71.1704,482.7675 70.5298,482.9081 Q69.8892,483.0644 69.186,483.0644 Q66.686,483.0644 65.3579,481.4238 Q64.0454,479.7675 64.0454,476.6425 Q64.0454,473.5175 65.3579,471.8613 Q66.686,470.205 69.186,470.205 Q69.8892,470.205 70.5298,470.3613 Q71.186,470.5175 71.7485,470.8144 L71.7485,473.5331 Q71.1235,472.955 70.5298,472.6894 Q69.936,472.4081 69.311,472.4081 Q67.9673,472.4081 67.2798,473.4863 Q66.5923,474.5488 66.5923,476.6425 Q66.5923,478.7363 67.2798,479.8144 Q67.9673,480.8769 69.311,480.8769 Q69.936,480.8769 70.5298,480.6113 Q71.1235,480.33 71.7485,479.7519 L71.7485,482.4706 Z " fill="#000000"/><text fill="#000000" font-family="sans-serif" font-size="14" lengthAdjust="spacing" textLength="71.9004" x="89.2798" y="481.6767">OrderItem</text><line style="stroke:#181818;stroke-width:0.5;" x1="8" x2="209.96" y1="492.83" y2="492.83"/><g data-visibility-modifier="PUBLIC_FIELD"><ellipse cx="18" cy="506.4784" fill="none" rx="3" ry="3" style="stroke:#038048;stroke-width:1;"/></g><text fill="#000000" font-family="sans-serif" font-size="14" lengthAdjust="spacing" textLength="81.0674" x="27" y="509.8251">int quantity</text><g data-visibility-modifier="PUBLIC_FIELD"><ellipse cx="18" cy="522.7753" fill="none" rx="3" ry="3" style="stroke:#038048;stroke-width:1;"/></g><text fill="#000000" font-family="sans-serif" font-size="14" lengthAdjust="spacing" textLength="97.4258" x="27" y="526.122">float unitPrice</text><g data-visibility-modifier="PUBLIC_FIELD"><ellipse cx="18" cy="539.0722" fill="none" rx="3" ry="3" style="stroke:#038048;stroke-width:1;"/></g><text fill="#000000" font-family="sans-serif" font-size="14" lengthAdjust="spacing" textLength="95.4707" x="27" y="542.4189">float discount</text><line style="stroke:#181818;stroke-width:0.5;" x1="8" x2="209.96" y1="549.7206" y2="549.7206"/><g data-visibility-modifier="PUBLIC_METHOD"><ellipse cx="18" cy="563.3691" fill="#84BE84" rx="3" ry="3" style="stroke:#038048;stroke-width:1;"/></g><text fill="#000000" font-family="sans-serif" font-size="14" lengthAdjust="spacing" textLength="177.96" x="27" y="566.7157">calculateSubtotal() : float</text></g><!--class OrderHistory--><g class="entity" data-qualified-name="OrderHistory" data-source-line="21" id="ent0004"><rect fill="#F1F1F1" height="96.8906" rx="2.5" ry="2.5" style="stroke:#181818;stroke-width:0.5;" width="169.124" x="246.42" y="468.98"/><ellipse cx="282.6988" cy="484.98" fill="#ADD1B2" rx="11" ry="11" style="stroke:#181818;stroke-width:1;"/><path d="M285.6675,490.6206 Q285.0894,490.9175 284.4488,491.0581 Q283.8081,491.2144 283.105,491.2144 Q280.605,491.2144 279.2769,489.5738 Q277.9644,487.9175 277.9644,484.7925 Q277.9644,481.6675 279.2769,480.0113 Q280.605,478.355 283.105,478.355 Q283.8081,478.355 284.4488,478.5113 Q285.105,478.6675 285.6675,478.9644 L285.6675,481.6831 Q285.0425,481.105 284.4488,480.8394 Q283.855,480.5581 283.23,480.5581 Q281.8863,480.5581 281.1988,481.6363 Q280.5113,482.6988 280.5113,484.7925 Q280.5113,486.8863 281.1988,487.9644 Q281.8863,489.0269 283.23,489.0269 Q283.855,489.0269 284.4488,488.7613 Q285.0425,488.48 285.6675,487.9019 L285.6675,490.6206 Z " fill="#000000"/><text fill="#000000" font-family="sans-serif" font-size="14" lengthAdjust="spacing" textLength="89.8379" x="301.4274" y="489.8267">OrderHistory</text><line style="stroke:#181818;stroke-width:0.5;" x1="247.42" x2="414.544" y1="500.98" y2="500.98"/><g data-visibility-modifier="PUBLIC_FIELD"><ellipse cx="257.42" cy="514.6284" fill="none" rx="3" ry="3" style="stroke:#038048;stroke-width:1;"/></g><text fill="#000000" font-family="sans-serif" font-size="14" lengthAdjust="spacing" textLength="35.4785" x="266.42" y="517.9751">int id</text><g data-visibility-modifier="PUBLIC_FIELD"><ellipse cx="257.42" cy="530.9253" fill="none" rx="3" ry="3" style="stroke:#038048;stroke-width:1;"/></g><text fill="#000000" font-family="sans-serif" font-size="14" lengthAdjust="spacing" textLength="123.498" x="266.42" y="534.272">string statusCode</text><g data-visibility-modifier="PUBLIC_FIELD"><ellipse cx="257.42" cy="547.2222" fill="none" rx="3" ry="3" style="stroke:#038048;stroke-width:1;"/></g><text fill="#000000" font-family="sans-serif" font-size="14" lengthAdjust="spacing" textLength="143.124" x="266.42" y="550.5689">datetime changedAt</text><line style="stroke:#181818;stroke-width:0.5;" x1="247.42" x2="414.544" y1="557.8706" y2="557.8706"/></g><!--class CommercialClient--><g class="entity" data-qualified-name="CommercialClient" data-source-line="27" id="ent0005"><rect fill="#F1F1F1" height="88.8594" rx="2.5" ry="2.5" style="stroke:#181818;stroke-width:0.5;" width="172.959" x="244.5" y="7"/><ellipse cx="266.8745" cy="27.1328" fill="#ADD1B2" rx="11" ry="11" style="stroke:#181818;stroke-width:1;"/><path d="M269.8432,32.7734 Q269.2651,33.0703 268.6245,33.2109 Q267.9838,33.3672 267.2807,33.3672 Q264.7807,33.3672 263.4526,31.7266 Q262.1401,30.0703 262.1401,26.9453 Q262.1401,23.8203 263.4526,22.1641 Q264.7807,20.5078 267.2807,20.5078 Q267.9838,20.5078 268.6245,20.6641 Q269.2807,20.8203 269.8432,21.1172 L269.8432,23.8359 Q269.2182,23.2578 268.6245,22.9922 Q268.0307,22.7109 267.4057,22.7109 Q266.062,22.7109 265.3745,23.7891 Q264.687,24.8516 264.687,26.9453 Q264.687,29.0391 265.3745,30.1172 Q266.062,31.1797 267.4057,31.1797 Q268.0307,31.1797 268.6245,30.9141 Q269.2182,30.6328 269.8432,30.0547 L269.8432,32.7734 Z " fill="#000000"/><text fill="#000000" font-family="sans-serif" font-size="12" font-style="italic" lengthAdjust="spacing" textLength="75.9141" x="306.8418" y="23.1387">&#171;Reference&#187;</text><text fill="#000000" font-family="sans-serif" font-size="14" lengthAdjust="spacing" textLength="124.5713" x="282.5132" y="38.9639">CommercialClient</text><line style="stroke:#181818;stroke-width:0.5;" x1="245.5" x2="416.459" y1="47.2656" y2="47.2656"/><g data-visibility-modifier="PUBLIC_FIELD"><ellipse cx="255.5" cy="60.9141" fill="none" rx="3" ry="3" style="stroke:#038048;stroke-width:1;"/></g><text fill="#000000" font-family="sans-serif" font-size="14" lengthAdjust="spacing" textLength="35.4785" x="264.5" y="64.2607">int id</text><g data-visibility-modifier="PUBLIC_FIELD"><ellipse cx="255.5" cy="77.2109" fill="none" rx="3" ry="3" style="stroke:#038048;stroke-width:1;"/></g><text fill="#000000" font-family="sans-serif" font-size="14" lengthAdjust="spacing" textLength="146.959" x="264.5" y="80.5576">string businessName</text><line style="stroke:#181818;stroke-width:0.5;" x1="245.5" x2="416.459" y1="87.8594" y2="87.8594"/></g><!--class CommercialCondition--><g class="entity" data-qualified-name="CommercialCondition" data-source-line="32" id="ent0006"><rect fill="#F1F1F1" height="72.5625" rx="2.5" ry="2.5" style="stroke:#181818;stroke-width:0.5;" width="300.5859" x="450.69" y="481.15"/><ellipse cx="521.3087" cy="501.2828" fill="#ADD1B2" rx="11" ry="11" style="stroke:#181818;stroke-width:1;"/><path d="M524.2774,506.9234 Q523.6993,507.2203 523.0587,507.3609 Q522.418,507.5172 521.7149,507.5172 Q519.2149,507.5172 517.8868,505.8766 Q516.5743,504.2203 516.5743,501.0953 Q516.5743,497.9703 517.8868,496.3141 Q519.2149,494.6578 521.7149,494.6578 Q522.418,494.6578 523.0587,494.8141 Q523.7149,494.9703 524.2774,495.2672 L524.2774,497.9859 Q523.6524,497.4078 523.0587,497.1422 Q522.4649,496.8609 521.8399,496.8609 Q520.4962,496.8609 519.8087,497.9391 Q519.1212,499.0016 519.1212,501.0953 Q519.1212,503.1891 519.8087,504.2672 Q520.4962,505.3297 521.8399,505.3297 Q522.4649,505.3297 523.0587,505.0641 Q523.6524,504.7828 524.2774,504.2047 L524.2774,506.9234 Z " fill="#000000"/><text fill="#000000" font-family="sans-serif" font-size="12" font-style="italic" lengthAdjust="spacing" textLength="75.9141" x="579.2759" y="497.2887">&#171;Reference&#187;</text><text fill="#000000" font-family="sans-serif" font-size="14" lengthAdjust="spacing" textLength="150.8486" x="541.8087" y="513.1139">CommercialCondition</text><line style="stroke:#181818;stroke-width:0.5;" x1="451.69" x2="750.2759" y1="521.4156" y2="521.4156"/><line style="stroke:#181818;stroke-width:0.5;" x1="451.69" x2="750.2759" y1="529.4156" y2="529.4156"/><g data-visibility-modifier="PUBLIC_METHOD"><ellipse cx="461.69" cy="543.0641" fill="#84BE84" rx="3" ry="3" style="stroke:#038048;stroke-width:1;"/></g><text fill="#000000" font-family="sans-serif" font-size="14" lengthAdjust="spacing" textLength="274.5859" x="470.69" y="546.4107">isCreditApproved(amount : float) : bool</text></g><!--class Product--><g class="entity" data-qualified-name="Product" data-source-line="36" id="ent0007"><rect fill="#F1F1F1" height="88.8594" rx="2.5" ry="2.5" style="stroke:#181818;stroke-width:0.5;" width="110.3418" x="53.81" y="651.02"/><ellipse cx="71.7025" cy="671.1528" fill="#ADD1B2" rx="11" ry="11" style="stroke:#181818;stroke-width:1;"/><path d="M74.6712,676.7934 Q74.0931,677.0903 73.4525,677.2309 Q72.8119,677.3872 72.1087,677.3872 Q69.6087,677.3872 68.2806,675.7466 Q66.9681,674.0903 66.9681,670.9653 Q66.9681,667.8403 68.2806,666.1841 Q69.6087,664.5278 72.1087,664.5278 Q72.8119,664.5278 73.4525,664.6841 Q74.1087,664.8403 74.6712,665.1372 L74.6712,667.8559 Q74.0462,667.2778 73.4525,667.0122 Q72.8587,666.7309 72.2337,666.7309 Q70.89,666.7309 70.2025,667.8091 Q69.515,668.8716 69.515,670.9653 Q69.515,673.0591 70.2025,674.1372 Q70.89,675.1997 72.2337,675.1997 Q72.8587,675.1997 73.4525,674.9341 Q74.0462,674.6528 74.6712,674.0747 L74.6712,676.7934 Z " fill="#000000"/><text fill="#000000" font-family="sans-serif" font-size="12" font-style="italic" lengthAdjust="spacing" textLength="75.9141" x="84.3453" y="667.1587">&#171;Reference&#187;</text><text fill="#000000" font-family="sans-serif" font-size="14" lengthAdjust="spacing" textLength="53.71" x="95.4473" y="682.9839">Product</text><line style="stroke:#181818;stroke-width:0.5;" x1="54.81" x2="163.1518" y1="691.2856" y2="691.2856"/><g data-visibility-modifier="PUBLIC_FIELD"><ellipse cx="64.81" cy="704.9341" fill="none" rx="3" ry="3" style="stroke:#038048;stroke-width:1;"/></g><text fill="#000000" font-family="sans-serif" font-size="14" lengthAdjust="spacing" textLength="35.4785" x="73.81" y="708.2807">int id</text><g data-visibility-modifier="PUBLIC_FIELD"><ellipse cx="64.81" cy="721.2309" fill="none" rx="3" ry="3" style="stroke:#038048;stroke-width:1;"/></g><text fill="#000000" font-family="sans-serif" font-size="14" lengthAdjust="spacing" textLength="84.3418" x="73.81" y="724.5776">string name</text><line style="stroke:#181818;stroke-width:0.5;" x1="54.81" x2="163.1518" y1="731.8794" y2="731.8794"/></g><!--reverse link CommercialClient to Order--><g class="link" data-entity-1="ent0005" data-entity-2="ent0002" data-link-type="dependency" data-source-line="41" id="lnk8"><path codeLine="41" d="M330.98,102.33 C330.98,124.19 330.98,145.64 330.98,172.51" fill="none" id="CommercialClient-backto-Order" style="stroke:#181818;stroke-width:1;"/><polygon fill="#181818" points="330.98,96.33,326.98,105.33,330.98,101.33,334.98,105.33,330.98,96.33" style="stroke:#181818;stroke-width:1;"/><text fill="#000000" font-family="sans-serif" font-size="13" lengthAdjust="spacing" textLength="65.6729" x="331.98" y="138.9269">placed_by</text><text fill="#000000" font-family="sans-serif" font-size="13" lengthAdjust="spacing" textLength="8.271" x="322.4366" y="115.775">1</text><text fill="#000000" font-family="sans-serif" font-size="13" lengthAdjust="spacing" textLength="6.5" x="324.7952" y="161.9667">*</text></g><!--reverse link Order to OrderItem--><g class="link" data-entity-1="ent0002" data-entity-2="ent0003" data-link-type="composition" data-source-line="42" id="lnk9"><path codeLine="42" d="M224.7591,392.7805 C200.1391,419.0805 182.85,437.54 161.43,460.41" fill="none" id="Order-backto-OrderItem" style="stroke:#181818;stroke-width:1;"/><polygon fill="#181818" points="232.96,384.02,225.9394,385.6666,224.7591,392.7805,231.7797,391.1339,232.96,384.02" style="stroke:#181818;stroke-width:1;"/><text fill="#000000" font-family="sans-serif" font-size="13" lengthAdjust="spacing" textLength="66.5171" x="201.98" y="426.8969">comprises</text><text fill="#000000" font-family="sans-serif" font-size="13" lengthAdjust="spacing" textLength="8.271" x="217.7962" y="404.0492">1</text><text fill="#000000" font-family="sans-serif" font-size="13" lengthAdjust="spacing" textLength="6.5" x="161.4872" y="449.6224">*</text></g><!--reverse link Order to OrderHistory--><g class="link" data-entity-1="ent0002" data-entity-2="ent0004" data-link-type="composition" data-source-line="43" id="lnk10"><path codeLine="43" d="M330.98,396.02 C330.98,425.55 330.98,444.23 330.98,468.62" fill="none" id="Order-backto-OrderHistory" style="stroke:#181818;stroke-width:1;"/><polygon fill="#181818" points="330.98,384.02,326.98,390.02,330.98,396.02,334.98,390.02,330.98,384.02" style="stroke:#181818;stroke-width:1;"/><text fill="#000000" font-family="sans-serif" font-size="13" lengthAdjust="spacing" textLength="39.8569" x="331.98" y="426.8969">tracks</text><text fill="#000000" font-family="sans-serif" font-size="13" lengthAdjust="spacing" textLength="8.271" x="322.7082" y="404.0492">1</text><text fill="#000000" font-family="sans-serif" font-size="13" lengthAdjust="spacing" textLength="6.5" x="324.593" y="457.7783">*</text></g><!--link Order to CommercialCondition--><g class="link" data-entity-1="ent0002" data-entity-2="ent0006" data-link-type="dependency" data-source-line="44" id="lnk11"><path codeLine="44" d="M450.19,384.02 C489.75,418.76 526.6316,451.1409 556.0116,476.9409" fill="none" id="Order-to-CommercialCondition" style="stroke:#181818;stroke-width:1;stroke-dasharray:7,7;"/><polygon fill="#181818" points="560.52,480.9,556.3967,471.9558,556.763,477.6008,551.118,477.967,560.52,480.9" style="stroke:#181818;stroke-width:1;"/><text fill="#000000" font-family="sans-serif" font-size="13" lengthAdjust="spacing" textLength="113.3755" x="499.98" y="426.8969">validates_against</text></g><!--link OrderItem to Product--><g class="link" data-entity-1="ent0003" data-entity-2="ent0007" data-link-type="dependency" data-source-line="45" id="lnk12"><path codeLine="45" d="M108.98,574.12 C108.98,598.8 108.98,621.41 108.98,644.54" fill="none" id="OrderItem-to-Product" style="stroke:#181818;stroke-width:1;"/><polygon fill="#181818" points="108.98,650.54,112.98,641.54,108.98,645.54,104.98,641.54,108.98,650.54" style="stroke:#181818;stroke-width:1;"/><text fill="#000000" font-family="sans-serif" font-size="13" lengthAdjust="spacing" textLength="29.3706" x="109.98" y="617.0869">item</text><text fill="#000000" font-family="sans-serif" font-size="13" lengthAdjust="spacing" textLength="6.5" x="102.6448" y="594.0189">*</text><text fill="#000000" font-family="sans-serif" font-size="13" lengthAdjust="spacing" textLength="8.271" x="100.4123" y="639.919">1</text></g><?plantuml-src ZL9DJm8n4BtlhsWu8GOJhnj2GjQ3NfG8TpEq0qxijcjdYgBnlxkVi0WQUshUlBmtRsQq1MRr40m6zPceybsI4qMc-RC4SXlbg_eD21wXB22H6sXjFOZYk18lOFkOmFlo1Ak0MUwZamRMO7MqfK5DvU65IjNMTrrimP8fYvdFSmoQm2unv0rhvNqh7OkAiwYR6ZfyQtubfMdtM1AYFFj07tYm-aeIVPZ6dM3UdyXh12SaktwCw4ZcWJJsGKEipmHRjAEf_Mhc3yDROl5XzySMcdbdthH-LLoX79L-1hT1C-j97aQLMS9IQp9vn3K6T1gdqpzCLf798VCzv7XMpZj3GjxzeiXPm98mAuhWjsY6K6-voxpVs5vv7ho9-l_zkRQlau23wu6QZCTgC1gqzvogme96yxJQ9GrISKPzJhtbL6cV5u4O-JTUjvnKIG3zql6khgPdHrDUL7ko_0GR8CUI7FmgrV5uMhjqyLD5PUaR?></g></svg>