<svg xmlns="http://www.w3.org/2000/svg" xmlns:xlink="http://www.w3.org/1999/xlink" contentStyleType="text/css" data-diagram-type="CLASS" height="374px" preserveAspectRatio="none" style="width:1037px;height:374px;background:#FFFFFF;" version="1.1" viewBox="0 0 1037 374" width="1037px" zoomAndPan="magnify"><?plantuml 1.2026.3beta6?><defs/><g><!--class Dispatch--><g class="entity" data-qualified-name="Dispatch" data-source-line="1" id="ent0002"><rect fill="#F1F1F1" height="162.0781" rx="2.5" ry="2.5" style="stroke:#181818;stroke-width:0.5;" width="275.9971" x="447.93" y="7"/><ellipse cx="550.9339" cy="23" fill="#ADD1B2" rx="11" ry="11" style="stroke:#181818;stroke-width:1;"/><path d="M553.9027,28.6406 Q553.3245,28.9375 552.6839,29.0781 Q552.0433,29.2344 551.3402,29.2344 Q548.8402,29.2344 547.512,27.5938 Q546.1995,25.9375 546.1995,22.8125 Q546.1995,19.6875 547.512,18.0313 Q548.8402,16.375 551.3402,16.375 Q552.0433,16.375 552.6839,16.5313 Q553.3402,16.6875 553.9027,16.9844 L553.9027,19.7031 Q553.2777,19.125 552.6839,18.8594 Q552.0902,18.5781 551.4652,18.5781 Q550.1214,18.5781 549.4339,19.6563 Q548.7464,20.7188 548.7464,22.8125 Q548.7464,24.9063 549.4339,25.9844 Q550.1214,27.0469 551.4652,27.0469 Q552.0902,27.0469 552.6839,26.7813 Q553.2777,26.5 553.9027,25.9219 L553.9027,28.6406 Z " fill="#000000"/><text fill="#000000" font-family="sans-serif" font-size="14" lengthAdjust="spacing" textLength="61.4893" x="571.4339" y="27.8467">Dispatch</text><line style="stroke:#181818;stroke-width:0.5;" x1="448.93" x2="722.9271" y1="39" y2="39"/><g data-visibility-modifier="PUBLIC_FIELD"><ellipse cx="458.93" cy="52.6484" fill="none" rx="3" ry="3" style="stroke:#038048;stroke-width:1;"/></g><text fill="#000000" font-family="sans-serif" font-size="14" lengthAdjust="spacing" textLength="35.4785" x="467.93" y="55.9951">int id</text><g data-visibility-modifier="PUBLIC_FIELD"><ellipse cx="458.93" cy="68.9453" fill="none" rx="3" ry="3" style="stroke:#038048;stroke-width:1;"/></g><text fill="#000000" font-family="sans-serif" font-size="14" lengthAdjust="spacing" textLength="87.6572" x="467.93" y="72.292">string status</text><g data-visibility-modifier="PUBLIC_FIELD"><ellipse cx="458.93" cy="85.2422" fill="none" rx="3" ry="3" style="stroke:#038048;stroke-width:1;"/></g><text fill="#000000" font-family="sans-serif" font-size="14" lengthAdjust="spacing" textLength="137.1016" x="467.93" y="88.5889">datetime departure</text><line style="stroke:#181818;stroke-width:0.5;" x1="448.93" x2="722.9271" y1="95.8906" y2="95.8906"/><g data-visibility-modifier="PUBLIC_METHOD"><ellipse cx="458.93" cy="109.5391" fill="#84BE84" rx="3" ry="3" style="stroke:#038048;stroke-width:1;"/></g><text fill="#000000" font-family="sans-serif" font-size="14" lengthAdjust="spacing" textLength="178.0215" x="467.93" y="112.8857">calculateETA() : datetime</text><g data-visibility-modifier="PUBLIC_METHOD"><ellipse cx="458.93" cy="125.8359" fill="#84BE84" rx="3" ry="3" style="stroke:#038048;stroke-width:1;"/></g><text fill="#000000" font-family="sans-serif" font-size="14" lengthAdjust="spacing" textLength="165.3135" x="467.93" y="129.1826">verifyColdChain() : bool</text><g data-visibility-modifier="PUBLIC_METHOD"><ellipse cx="458.93" cy="142.1328" fill="#84BE84" rx="3" ry="3" style="stroke:#038048;stroke-width:1;"/></g><text fill="#000000" font-family="sans-serif" font-size="14" lengthAdjust="spacing" textLength="249.9971" x="467.93" y="145.4795">registerIncident(type : string) : void</text><g data-visibility-modifier="PUBLIC_METHOD"><ellipse cx="458.93" cy="158.4297" fill="#84BE84" rx="3" ry="3" style="stroke:#038048;stroke-width:1;"/></g><text fill="#000000" font-family="sans-serif" font-size="14" lengthAdjust="spacing" textLength="232.4902" x="467.93" y="161.7764">finalizeDelivery(pod : POD) : void</text></g><!--class Vehicle--><g class="entity" data-qualified-name="Vehicle" data-source-line="11" id="ent0003"><rect fill="#F1F1F1" height="113.1875" rx="2.5" ry="2.5" style="stroke:#181818;stroke-width:0.5;" width="279.8594" x="7" y="246.08"/><ellipse cx="117.103" cy="262.08" fill="#ADD1B2" rx="11" ry="11" style="stroke:#181818;stroke-width:1;"/><path d="M120.0718,267.7206 Q119.4937,268.0175 118.853,268.1581 Q118.2124,268.3144 117.5093,268.3144 Q115.0093,268.3144 113.6812,266.6738 Q112.3687,265.0175 112.3687,261.8925 Q112.3687,258.7675 113.6812,257.1113 Q115.0093,255.455 117.5093,255.455 Q118.2124,255.455 118.853,255.6112 Q119.5093,255.7675 120.0718,256.0644 L120.0718,258.7831 Q119.4468,258.205 118.853,257.9394 Q118.2593,257.6581 117.6343,257.6581 Q116.2905,257.6581 115.603,258.7363 Q114.9155,259.7988 114.9155,261.8925 Q114.9155,263.9863 115.603,265.0644 Q116.2905,266.1269 117.6343,266.1269 Q118.2593,266.1269 118.853,265.8613 Q119.4468,265.58 120.0718,265.0019 L120.0718,267.7206 Z " fill="#000000"/><text fill="#000000" font-family="sans-serif" font-size="14" lengthAdjust="spacing" textLength="51.1533" x="137.603" y="266.9267">Vehicle</text><line style="stroke:#181818;stroke-width:0.5;" x1="8" x2="285.8594" y1="278.08" y2="278.08"/><g data-visibility-modifier="PUBLIC_FIELD"><ellipse cx="18" cy="291.7284" fill="none" rx="3" ry="3" style="stroke:#038048;stroke-width:1;"/></g><text fill="#000000" font-family="sans-serif" font-size="14" lengthAdjust="spacing" textLength="80.0967" x="27" y="295.0751">string plate</text><g data-visibility-modifier="PUBLIC_FIELD"><ellipse cx="18" cy="308.0253" fill="none" rx="3" ry="3" style="stroke:#038048;stroke-width:1;"/></g><text fill="#000000" font-family="sans-serif" font-size="14" lengthAdjust="spacing" textLength="88.2314" x="27" y="311.372">string model</text><g data-visibility-modifier="PUBLIC_FIELD"><ellipse cx="18" cy="324.3222" fill="none" rx="3" ry="3" style="stroke:#038048;stroke-width:1;"/></g><text fill="#000000" font-family="sans-serif" font-size="14" lengthAdjust="spacing" textLength="133.7109" x="27" y="327.6689">float tempCapacity</text><line style="stroke:#181818;stroke-width:0.5;" x1="8" x2="285.8594" y1="334.9706" y2="334.9706"/><g data-visibility-modifier="PUBLIC_METHOD"><ellipse cx="18" cy="348.6191" fill="#84BE84" rx="3" ry="3" style="stroke:#038048;stroke-width:1;"/></g><text fill="#000000" font-family="sans-serif" font-size="14" lengthAdjust="spacing" textLength="253.8594" x="27" y="351.9657">isCompatible(reqTemp : float) : bool</text></g><!--class Driver--><g class="entity" data-qualified-name="Driver" data-source-line="18" id="ent0004"><rect fill="#F1F1F1" height="96.8906" rx="2.5" ry="2.5" style="stroke:#181818;stroke-width:0.5;" width="155.8213" x="322.02" y="254.23"/><ellipse cx="374.1406" cy="270.23" fill="#ADD1B2" rx="11" ry="11" style="stroke:#181818;stroke-width:1;"/><path d="M377.1094,275.8706 Q376.5312,276.1675 375.8906,276.3081 Q375.25,276.4644 374.5469,276.4644 Q372.0469,276.4644 370.7187,274.8237 Q369.4062,273.1675 369.4062,270.0425 Q369.4062,266.9175 370.7187,265.2612 Q372.0469,263.605 374.5469,263.605 Q375.25,263.605 375.8906,263.7612 Q376.5469,263.9175 377.1094,264.2144 L377.1094,266.9331 Q376.4844,266.355 375.8906,266.0894 Q375.2969,265.8081 374.6719,265.8081 Q373.3281,265.8081 372.6406,266.8862 Q371.9531,267.9487 371.9531,270.0425 Q371.9531,272.1362 372.6406,273.2144 Q373.3281,274.2769 374.6719,274.2769 Q375.2969,274.2769 375.8906,274.0112 Q376.4844,273.73 377.1094,273.1519 L377.1094,275.8706 Z " fill="#000000"/><text fill="#000000" font-family="sans-serif" font-size="14" lengthAdjust="spacing" textLength="43.0801" x="394.6406" y="275.0767">Driver</text><line style="stroke:#181818;stroke-width:0.5;" x1="323.02" x2="476.8413" y1="286.23" y2="286.23"/><g data-visibility-modifier="PUBLIC_FIELD"><ellipse cx="333.02" cy="299.8784" fill="none" rx="3" ry="3" style="stroke:#038048;stroke-width:1;"/></g><text fill="#000000" font-family="sans-serif" font-size="14" lengthAdjust="spacing" textLength="35.4785" x="342.02" y="303.2251">int id</text><g data-visibility-modifier="PUBLIC_FIELD"><ellipse cx="333.02" cy="316.1753" fill="none" rx="3" ry="3" style="stroke:#038048;stroke-width:1;"/></g><text fill="#000000" font-family="sans-serif" font-size="14" lengthAdjust="spacing" textLength="84.3418" x="342.02" y="319.522">string name</text><line style="stroke:#181818;stroke-width:0.5;" x1="323.02" x2="476.8413" y1="326.8237" y2="326.8237"/><g data-visibility-modifier="PUBLIC_METHOD"><ellipse cx="333.02" cy="340.4722" fill="#84BE84" rx="3" ry="3" style="stroke:#038048;stroke-width:1;"/></g><text fill="#000000" font-family="sans-serif" font-size="14" lengthAdjust="spacing" textLength="129.8213" x="342.02" y="343.8189">isAvailable() : bool</text></g><!--class Incident--><g class="entity" data-qualified-name="Incident" data-source-line="24" id="ent0005"><rect fill="#F1F1F1" height="113.1875" rx="2.5" ry="2.5" style="stroke:#181818;stroke-width:0.5;" width="146.2715" x="512.79" y="246.08"/><ellipse cx="553.8091" cy="262.08" fill="#ADD1B2" rx="11" ry="11" style="stroke:#181818;stroke-width:1;"/><path d="M556.7779,267.7206 Q556.1998,268.0175 555.5591,268.1581 Q554.9185,268.3144 554.2154,268.3144 Q551.7154,268.3144 550.3873,266.6738 Q549.0748,265.0175 549.0748,261.8925 Q549.0748,258.7675 550.3873,257.1113 Q551.7154,255.455 554.2154,255.455 Q554.9185,255.455 555.5591,255.6112 Q556.2154,255.7675 556.7779,256.0644 L556.7779,258.7831 Q556.1529,258.205 555.5591,257.9394 Q554.9654,257.6581 554.3404,257.6581 Q552.9966,257.6581 552.3091,258.7363 Q551.6216,259.7988 551.6216,261.8925 Q551.6216,263.9863 552.3091,265.0644 Q552.9966,266.1269 554.3404,266.1269 Q554.9654,266.1269 555.5591,265.8613 Q556.1529,265.58 556.7779,265.0019 L556.7779,267.7206 Z " fill="#000000"/><text fill="#000000" font-family="sans-serif" font-size="14" lengthAdjust="spacing" textLength="56.4512" x="573.5912" y="266.9267">Incident</text><line style="stroke:#181818;stroke-width:0.5;" x1="513.79" x2="658.0615" y1="278.08" y2="278.08"/><g data-visibility-modifier="PUBLIC_FIELD"><ellipse cx="523.79" cy="291.7284" fill="none" rx="3" ry="3" style="stroke:#038048;stroke-width:1;"/></g><text fill="#000000" font-family="sans-serif" font-size="14" lengthAdjust="spacing" textLength="75.9131" x="532.79" y="295.0751">string type</text><g data-visibility-modifier="PUBLIC_FIELD"><ellipse cx="523.79" cy="308.0253" fill="none" rx="3" ry="3" style="stroke:#038048;stroke-width:1;"/></g><text fill="#000000" font-family="sans-serif" font-size="14" lengthAdjust="spacing" textLength="100.8643" x="532.79" y="311.372">string severity</text><g data-visibility-modifier="PUBLIC_FIELD"><ellipse cx="523.79" cy="324.3222" fill="none" rx="3" ry="3" style="stroke:#038048;stroke-width:1;"/></g><text fill="#000000" font-family="sans-serif" font-size="14" lengthAdjust="spacing" textLength="120.2715" x="532.79" y="327.6689">string reportedAt</text><line style="stroke:#181818;stroke-width:0.5;" x1="513.79" x2="658.0615" y1="334.9706" y2="334.9706"/><g data-visibility-modifier="PUBLIC_METHOD"><ellipse cx="523.79" cy="348.6191" fill="#84BE84" rx="3" ry="3" style="stroke:#038048;stroke-width:1;"/></g><text fill="#000000" font-family="sans-serif" font-size="14" lengthAdjust="spacing" textLength="105.1846" x="532.79" y="351.9657">resolve() : void</text></g><!--class POD--><g class="entity" data-qualified-name="POD" data-source-line="31" id="ent0006"><rect fill="#F1F1F1" height="113.1875" rx="2.5" ry="2.5" style="stroke:#181818;stroke-width:0.5;" width="179.6172" x="694.12" y="246.08"/><ellipse cx="764.5575" cy="262.08" fill="#ADD1B2" rx="11" ry="11" style="stroke:#181818;stroke-width:1;"/><path d="M767.5263,267.7206 Q766.9481,268.0175 766.3075,268.1581 Q765.6669,268.3144 764.9638,268.3144 Q762.4638,268.3144 761.1356,266.6738 Q759.8231,265.0175 759.8231,261.8925 Q759.8231,258.7675 761.1356,257.1113 Q762.4638,255.455 764.9638,255.455 Q765.6669,255.455 766.3075,255.6112 Q766.9638,255.7675 767.5263,256.0644 L767.5263,258.7831 Q766.9013,258.205 766.3075,257.9394 Q765.7138,257.6581 765.0888,257.6581 Q763.745,257.6581 763.0575,258.7363 Q762.37,259.7988 762.37,261.8925 Q762.37,263.9863 763.0575,265.0644 Q763.745,266.1269 765.0888,266.1269 Q765.7138,266.1269 766.3075,265.8613 Q766.9013,265.58 767.5263,265.0019 L767.5263,267.7206 Z " fill="#000000"/><text fill="#000000" font-family="sans-serif" font-size="14" lengthAdjust="spacing" textLength="30.2422" x="785.0575" y="266.9267">POD</text><line style="stroke:#181818;stroke-width:0.5;" x1="695.12" x2="872.7372" y1="278.08" y2="278.08"/><g data-visibility-modifier="PUBLIC_FIELD"><ellipse cx="705.12" cy="291.7284" fill="none" rx="3" ry="3" style="stroke:#038048;stroke-width:1;"/></g><text fill="#000000" font-family="sans-serif" font-size="14" lengthAdjust="spacing" textLength="35.4785" x="714.12" y="295.0751">int id</text><g data-visibility-modifier="PUBLIC_FIELD"><ellipse cx="705.12" cy="308.0253" fill="none" rx="3" ry="3" style="stroke:#038048;stroke-width:1;"/></g><text fill="#000000" font-family="sans-serif" font-size="14" lengthAdjust="spacing" textLength="122.8828" x="714.12" y="311.372">string receivedBy</text><g data-visibility-modifier="PUBLIC_FIELD"><ellipse cx="705.12" cy="324.3222" fill="none" rx="3" ry="3" style="stroke:#038048;stroke-width:1;"/></g><text fill="#000000" font-family="sans-serif" font-size="14" lengthAdjust="spacing" textLength="143.165" x="714.12" y="327.6689">datetime timestamp</text><line style="stroke:#181818;stroke-width:0.5;" x1="695.12" x2="872.7372" y1="334.9706" y2="334.9706"/><g data-visibility-modifier="PUBLIC_METHOD"><ellipse cx="705.12" cy="348.6191" fill="#84BE84" rx="3" ry="3" style="stroke:#038048;stroke-width:1;"/></g><text fill="#000000" font-family="sans-serif" font-size="14" lengthAdjust="spacing" textLength="153.6172" x="714.12" y="351.9657">verifyIntegrity() : bool</text></g><!--class Order--><g class="entity" data-qualified-name="Order" data-source-line="38" id="ent0007"><rect fill="#F1F1F1" height="88.8594" rx="2.5" ry="2.5" style="stroke:#181818;stroke-width:0.5;" width="113.6572" x="909.1" y="258.25"/><ellipse cx="928.4844" cy="278.3828" fill="#ADD1B2" rx="11" ry="11" style="stroke:#181818;stroke-width:1;"/><path d="M931.4532,284.0234 Q930.875,284.3203 930.2344,284.4609 Q929.5938,284.6172 928.8907,284.6172 Q926.3907,284.6172 925.0625,282.9766 Q923.75,281.3203 923.75,278.1953 Q923.75,275.0703 925.0625,273.4141 Q926.3907,271.7578 928.8907,271.7578 Q929.5938,271.7578 930.2344,271.9141 Q930.8907,272.0703 931.4532,272.3672 L931.4532,275.0859 Q930.8282,274.5078 930.2344,274.2422 Q929.6407,273.9609 929.0157,273.9609 Q927.6719,273.9609 926.9844,275.0391 Q926.2969,276.1016 926.2969,278.1953 Q926.2969,280.2891 926.9844,281.3672 Q927.6719,282.4297 929.0157,282.4297 Q929.6407,282.4297 930.2344,282.1641 Q930.8282,281.8828 931.4532,281.3047 L931.4532,284.0234 Z " fill="#000000"/><text fill="#000000" font-family="sans-serif" font-size="12" font-style="italic" lengthAdjust="spacing" textLength="75.9141" x="941.4587" y="274.3887">&#171;Reference&#187;</text><text fill="#000000" font-family="sans-serif" font-size="14" lengthAdjust="spacing" textLength="40.0313" x="959.4001" y="290.2139">Order</text><line style="stroke:#181818;stroke-width:0.5;" x1="910.1" x2="1021.7572" y1="298.5156" y2="298.5156"/><g data-visibility-modifier="PUBLIC_FIELD"><ellipse cx="920.1" cy="312.1641" fill="none" rx="3" ry="3" style="stroke:#038048;stroke-width:1;"/></g><text fill="#000000" font-family="sans-serif" font-size="14" lengthAdjust="spacing" textLength="35.4785" x="929.1" y="315.5107">int id</text><g data-visibility-modifier="PUBLIC_FIELD"><ellipse cx="920.1" cy="328.4609" fill="none" rx="3" ry="3" style="stroke:#038048;stroke-width:1;"/></g><text fill="#000000" font-family="sans-serif" font-size="14" lengthAdjust="spacing" textLength="87.6572" x="929.1" y="331.8076">string status</text><line style="stroke:#181818;stroke-width:0.5;" x1="910.1" x2="1021.7572" y1="339.1094" y2="339.1094"/></g><!--link Dispatch to Order--><g class="link" data-entity-1="ent0002" data-entity-2="ent0007" data-link-type="dependency" data-source-line="43" id="lnk8"><path codeLine="43" d="M724.4,153.65 C777.66,180.22 838.29,212.6 890.93,246.08 C896.81,249.82 897.9088,250.4476 903.8588,254.5976" fill="none" id="Dispatch-to-Order" style="stroke:#181818;stroke-width:1;"/><polygon fill="#181818" points="908.78,258.03,903.6865,249.6005,904.679,255.1696,899.1099,256.1621,908.78,258.03" style="stroke:#181818;stroke-width:1;"/><text fill="#000000" font-family="sans-serif" font-size="13" lengthAdjust="spacing" textLength="51.2827" x="834.93" y="212.1469">delivers</text><text fill="#000000" font-family="sans-serif" font-size="13" lengthAdjust="spacing" textLength="6.5" x="731.7075" y="153.7167">*</text><text fill="#000000" font-family="sans-serif" font-size="13" lengthAdjust="spacing" textLength="8.271" x="892.9627" y="248.4237">1</text></g><!--link Dispatch to Vehicle--><g class="link" data-entity-1="ent0002" data-entity-2="ent0003" data-link-type="dependency" data-source-line="44" id="lnk9"><path codeLine="44" d="M447.63,156.03 C388.07,184.88 324.6098,215.6143 267.8398,243.1143" fill="none" id="Dispatch-to-Vehicle" style="stroke:#181818;stroke-width:1;"/><polygon fill="#181818" points="262.44,245.73,272.2835,245.4063,266.9398,243.5502,268.7959,238.2065,262.44,245.73" style="stroke:#181818;stroke-width:1;"/><text fill="#000000" font-family="sans-serif" font-size="13" lengthAdjust="spacing" textLength="98.7632" x="354.93" y="212.1469">transported_by</text><text fill="#000000" font-family="sans-serif" font-size="13" lengthAdjust="spacing" textLength="6.5" x="433.4756" y="156.5979">*</text><text fill="#000000" font-family="sans-serif" font-size="13" lengthAdjust="spacing" textLength="8.271" x="268.0468" y="234.9509">1</text></g><!--link Dispatch to Driver--><g class="link" data-entity-1="ent0002" data-entity-2="ent0004" data-link-type="dependency" data-source-line="45" id="lnk10"><path codeLine="45" d="M515.61,169.43 C490.72,197.89 467.4601,224.4738 445.6901,249.3638" fill="none" id="Dispatch-to-Driver" style="stroke:#181818;stroke-width:1;"/><polygon fill="#181818" points="441.74,253.88,450.676,249.739,445.0318,250.1165,444.6544,244.4722,441.74,253.88" style="stroke:#181818;stroke-width:1;"/><text fill="#000000" font-family="sans-serif" font-size="13" lengthAdjust="spacing" textLength="75.0039" x="488.93" y="212.1469">handled_by</text><text fill="#000000" font-family="sans-serif" font-size="13" lengthAdjust="spacing" textLength="6.5" x="503.3307" y="189.1417">*</text><text fill="#000000" font-family="sans-serif" font-size="13" lengthAdjust="spacing" textLength="8.271" x="439.076" y="243.0397">1</text></g><!--reverse link Dispatch to Incident--><g class="link" data-entity-1="ent0002" data-entity-2="ent0005" data-link-type="composition" data-source-line="46" id="lnk11"><path codeLine="46" d="M585.93,181.43 C585.93,206.83 585.93,222.34 585.93,245.65" fill="none" id="Dispatch-backto-Incident" style="stroke:#181818;stroke-width:1;"/><polygon fill="#181818" points="585.93,169.43,581.93,175.43,585.93,181.43,589.93,175.43,585.93,169.43" style="stroke:#181818;stroke-width:1;"/><text fill="#000000" font-family="sans-serif" font-size="13" lengthAdjust="spacing" textLength="48.8135" x="586.93" y="212.1469">records</text><text fill="#000000" font-family="sans-serif" font-size="13" lengthAdjust="spacing" textLength="8.271" x="577.598" y="189.1417">1</text><text fill="#000000" font-family="sans-serif" font-size="13" lengthAdjust="spacing" textLength="6.5" x="579.5954" y="234.8612">*</text></g><!--reverse link Dispatch to POD--><g class="link" data-entity-1="ent0002" data-entity-2="ent0006" data-link-type="composition" data-source-line="47" id="lnk12"><path codeLine="47" d="M668.9673,178.2124 C692.6173,203.6124 710.05,222.34 731.76,245.65" fill="none" id="Dispatch-backto-POD" style="stroke:#181818;stroke-width:1;"/><polygon fill="#181818" points="660.79,169.43,661.9512,176.547,668.9673,178.2124,667.8061,171.0954,660.79,169.43" style="stroke:#181818;stroke-width:1;"/><text fill="#000000" font-family="sans-serif" font-size="13" lengthAdjust="spacing" textLength="91.4189" x="703.93" y="212.1469">completed_by</text><text fill="#000000" font-family="sans-serif" font-size="13" lengthAdjust="spacing" textLength="8.271" x="658.8913" y="189.1417">1</text><text fill="#000000" font-family="sans-serif" font-size="13" lengthAdjust="spacing" textLength="24.8066" x="699.9886" y="234.8612">0..1</text></g><?plantuml-src XLB1QW8n4Btx5S6JjIZjTH71QW-UB4LwBJ6PrO5iaYRZmhRqtpinkqkrOlUmXCdBp7jldZ8oHh72w2MfW_WQ2FxkqP90dS-H0jgzY2Jf67D9ImB22eG6BmCT0-IwaaOT3Ly-RnUZEr683fYlQmXODajdzF8WqPuGE-TClWsmnqWGrbQX1aiZQZmm8izFsDfrd4gqqk0dhC0WTsr6tca6l6nMFUvxC50dRMzmG6MWazRAyOdcMQLo6begfN6I147bbz9BXTIqjiIbgzWet1aO1VZOCeBddU2zc7xmAYHkDooridC6uwAMQ6Jg-xTHvyY5XEJF-OeWEToHROi1l0i4Ua6TpT6PEeyvDuhTkq4sW0BMev-QYmoa7uUZyh-NlBO4-yJbYfnDq6pBRFOA9GIm2kRp_tF7h_kG3iT3CPdCnV1ns3RZfEKanEkeBWE5e21jp8wyxvhhw7PnXJX8gyqba07ZoUJqe5zCaUnnGSShk8Vfb8_9t48eZe-1FFi7?></g></svg>